<svg width="512" height="512" viewBox="0 0 512 512" fill="none" xmlns="http://www.w3.org/2000/svg">
<path d="M255.299 23.7834L36.7891 100.683L71.3151 386.969L255.532 488.217L440.696 385.601L475.211 99.3218L255.299 23.7834Z" fill="#B3B3B3"/>
<path d="M453.414 115.868L254.791 48.1319V464.027L421.248 371.902L453.414 115.868Z" fill="#A6120D"/>
<path d="M61.3037 117.088L90.8996 373.126L254.787 464.027V48.1246L61.3037 117.088Z" fill="#DD1B16"/>
<path d="M309.465 269.533L254.791 295.102H197.162L170.07 362.856L119.688 363.793L254.791 63.2322L309.465 269.533ZM304.177 256.66L255.152 159.601L214.936 254.99H254.787L304.177 256.66Z" fill="#F2F2F2"/>
<path d="M254.787 63.2322L255.148 159.601L300.781 255.063H254.886L254.787 295.04L318.245 295.102L347.9 363.8L396.11 364.693L254.787 63.2322Z" fill="#B3B3B3"/>
</svg>
