<svg width="512" height="512" viewBox="0 0 512 512" fill="none" xmlns="http://www.w3.org/2000/svg">
<g clip-path="url(#clip0_406_52)">
<path d="M256 56C145.2 56 56 145.2 56 256C56 366.8 145.2 456 256 456C366.8 456 456 366.8 456 256C456 145.2 366.8 56 256 56ZM302.667 128.217C304.833 128.15 306.8 130.483 305.517 132.85L254.783 225.85C254.527 226.324 254.398 226.857 254.408 227.396C254.419 227.935 254.57 228.462 254.845 228.925C255.12 229.389 255.511 229.773 255.98 230.04C256.448 230.307 256.978 230.449 257.517 230.45H345.183C348.017 230.45 349.383 233.9 347.317 235.833L193.65 379.25C190.9 381.817 186.817 378.2 189.017 375.15L261.75 274.8C262.083 274.335 262.282 273.788 262.325 273.218C262.368 272.647 262.254 272.076 261.994 271.567C261.734 271.058 261.339 270.63 260.852 270.33C260.365 270.03 259.805 269.87 259.233 269.867H166.45C165.833 269.865 165.23 269.68 164.718 269.336C164.205 268.991 163.807 268.502 163.573 267.931C163.339 267.359 163.28 266.732 163.404 266.127C163.527 265.522 163.828 264.967 164.267 264.533L300.6 129.15C301.146 128.579 301.877 128.245 302.667 128.217Z" fill="#3FC7BF"/>
</g>
<defs>
<clipPath id="clip0_406_52">
<rect width="400" height="400" fill="white" transform="translate(56 56)"/>
</clipPath>
</defs>
</svg>
