<svg width="512" height="512" viewBox="0 0 512 512" fill="none" xmlns="http://www.w3.org/2000/svg">
<g clip-path="url(#clip0_403_2)">
<path d="M255.654 45.0575C255.654 45.0575 379.226 39.5074 444.741 163.822H245.139C245.139 163.822 207.47 162.607 175.293 208.344C166.05 227.54 156.114 247.315 167.264 286.287C151.202 259.053 81.9922 138.439 81.9922 138.439C81.9922 138.439 130.811 49.972 255.654 45.0575Z" fill="#EF3F36"/>
<path d="M438.327 360.645C438.327 360.645 381.306 470.562 241.037 465.126C258.369 435.117 340.866 292.126 340.866 292.126C340.866 292.126 360.798 260.094 337.284 209.327C325.324 191.692 313.134 173.247 273.851 163.416C305.453 163.129 444.394 163.416 444.394 163.416C444.394 163.416 496.445 249.975 438.327 360.645Z" fill="#FCD900"/>
<path d="M73.8461 361.512C73.8461 361.512 7.23504 257.145 82.1066 138.265C99.3807 168.275 181.878 311.266 181.878 311.266C181.878 311.266 199.672 344.571 255.306 349.541C276.509 347.981 298.577 346.651 326.771 317.568C311.228 345.091 241.497 465.358 241.497 465.358C241.497 465.358 140.515 467.209 73.8461 361.512Z" fill="#61BC5B"/>
<path d="M240.98 466.168L269.056 348.907C269.056 348.907 299.907 346.477 325.789 318.088C309.728 346.364 240.98 466.168 240.98 466.168Z" fill="#5AB055"/>
<path d="M161.602 256.913C161.602 205.222 203.487 163.301 255.134 163.301C306.78 163.301 348.666 205.222 348.666 256.913C348.666 308.605 306.78 350.525 255.134 350.525C203.487 350.467 161.602 308.605 161.602 256.913Z" fill="white"/>
<path d="M177.257 256.913C177.257 213.895 212.094 178.971 255.134 178.971C298.115 178.971 333.01 213.838 333.01 256.913C333.01 299.932 298.174 334.857 255.134 334.857C212.151 334.857 177.257 299.932 177.257 256.913Z" fill="url(#paint0_linear_403_2)"/>
<path d="M444.335 163.475L328.734 197.416C328.734 197.416 311.287 171.8 273.794 163.475C306.319 163.301 444.335 163.475 444.335 163.475Z" fill="#EACA05"/>
<path d="M165.011 282.008C148.775 253.849 81.9922 138.439 81.9922 138.439L167.61 223.204C167.61 223.204 158.828 241.302 162.122 267.205L165.011 282.008Z" fill="#DF3A32"/>
</g>
<defs>
<linearGradient id="paint0_linear_403_2" x1="255.13" y1="180.072" x2="255.13" y2="330.164" gradientUnits="userSpaceOnUse">
<stop stop-color="#86BBE5"/>
<stop offset="1" stop-color="#1072BA"/>
</linearGradient>
<clipPath id="clip0_403_2">
<rect width="420" height="422" fill="white" transform="translate(46 45)"/>
</clipPath>
</defs>
</svg>
