<svg width="512" height="512" viewBox="0 0 512 512" fill="none" xmlns="http://www.w3.org/2000/svg">
<g clip-path="url(#clip0_45_160)">
<path d="M458.815 163.37C458.812 155.856 457.169 149.217 453.848 143.521C450.586 137.916 445.7 133.22 439.147 129.507C385.052 98.9884 330.905 68.5633 276.829 38.0137C262.25 29.7786 248.114 30.0804 233.644 38.4337C212.112 50.8564 104.313 111.285 72.1902 129.49C58.9611 136.984 52.5238 148.452 52.5207 163.356C52.5 224.73 52.5207 286.105 52.5 347.479C52.5 354.828 54.0755 361.339 57.2505 366.95C60.5144 372.723 65.4684 377.548 72.1727 381.345C104.297 399.55 212.111 459.974 233.637 472.401C248.114 480.759 262.25 481.058 276.833 472.821C330.912 442.27 385.062 411.845 439.164 381.326C445.869 377.531 450.823 372.702 454.087 366.934C457.257 361.322 458.835 354.812 458.835 347.462C458.835 347.462 458.835 224.746 458.815 163.37Z" fill="#A179DC"/>
<path d="M256.289 254.819L57.2505 366.95C60.5144 372.723 65.4684 377.548 72.1728 381.345C104.297 399.55 212.111 459.974 233.637 472.401C248.114 480.759 262.25 481.058 276.833 472.821C330.912 442.27 385.062 411.845 439.164 381.326C445.869 377.531 450.823 372.702 454.087 366.934L256.289 254.819Z" fill="#280068"/>
<path d="M458.815 163.37C458.812 155.856 457.169 149.217 453.848 143.521L256.289 254.821L454.087 366.934C457.257 361.322 458.832 354.812 458.835 347.462C458.835 347.462 458.835 224.746 458.815 163.37Z" fill="#390091"/>
<path d="M373.477 212.902V233.861H394.898V212.902H405.609V233.861H427.031V244.341H405.609V265.299H427.031V275.779H405.609V296.738H394.898V275.779H373.477V296.738H362.766V275.779H341.346V265.299H362.766V244.341H341.346V233.861H362.766V212.902H373.477ZM394.898 244.34H373.477V265.299H394.898V244.341V244.34Z" fill="white"/>
<path d="M256.726 107.64C312.6 107.64 361.381 137.33 387.51 181.461L387.256 181.036L321.516 218.071C308.565 196.615 284.822 182.134 257.583 181.836L256.725 181.831C215.19 181.831 181.517 214.778 181.517 255.417C181.504 268.226 184.924 280.814 191.436 291.926C204.4 314.069 228.771 329.004 256.726 329.004C284.856 329.004 309.365 313.879 322.261 291.499L321.948 292.036L387.588 329.242C361.745 373 313.632 402.597 258.408 403.187L256.726 403.196C200.676 403.196 151.757 373.323 125.693 328.959C112.97 307.301 105.69 282.192 105.69 255.417C105.69 173.803 173.309 107.639 256.725 107.639L256.726 107.64Z" fill="white"/>
</g>
<defs>
<clipPath id="clip0_45_160">
<rect width="407" height="448" fill="white" transform="translate(52.5 32)"/>
</clipPath>
</defs>
</svg>
