<svg width="512" height="512" viewBox="0 0 512 512" fill="none" xmlns="http://www.w3.org/2000/svg">
<path d="M114.628 412.814L83.184 60H428.816L397.33 412.758L255.79 452L114.628 412.814Z" fill="#1572B6"/>
<path d="M256 422.012L370.38 390.302L397.288 88.854H256V422.012Z" fill="#33A9DC"/>
<path d="M256 216.674H313.26L317.208 172.364H256V129.09H364.5L363.464 140.696L352.838 259.948H256V216.674Z" fill="white"/>
<path d="M256.266 329.052L256.07 329.108L207.882 316.088L204.802 281.578H161.36L167.422 349.52L256.056 374.132L256.266 374.076V329.052Z" fill="#EBEBEB"/>
<path d="M309.578 258.114L304.37 316.06L256.112 329.08V374.104L344.816 349.52L345.474 342.212L352.992 258.114H309.578Z" fill="white"/>
<path d="M256.154 129.09V172.364H151.63L150.762 162.634L148.788 140.696L147.752 129.09H256.154ZM256 216.674V259.948H208.414L207.546 250.218L205.586 228.28L204.55 216.674H256Z" fill="#EBEBEB"/>
</svg>
