<svg width="512" height="512" viewBox="0 0 512 512" fill="none" xmlns="http://www.w3.org/2000/svg">
<g clip-path="url(#clip0_414_2)">
<path d="M279.676 422.401L272.157 440.657C270.664 444.272 267.249 446.719 263.406 446.884C260.866 446.981 258.306 447.052 255.721 447.052C167.226 447.005 88.9274 384.418 69.5267 298.18L39.4023 305.001C50.289 353.373 77.6141 397.277 116.348 428.654C155.531 460.386 204.891 477.905 255.388 478H255.838C258.804 478 261.746 477.929 264.685 477.809C280.531 477.145 294.69 467.184 300.74 452.423L310.558 428.558L279.676 422.401Z" fill="url(#paint0_linear_414_2)"/>
<path d="M41.8741 314.82C36.6401 295.656 33.9919 275.878 34 256.012C34 164.973 90.9968 81.73 175.841 48.9035L186.965 77.7843C113.934 106.046 64.8823 177.667 64.8823 256.012C64.8721 273.106 67.1458 290.126 71.6429 306.618L41.8741 314.82Z" fill="url(#paint1_linear_414_2)"/>
<path d="M425.436 168.064C392.419 104.478 327.428 64.9725 255.868 64.9725C230.512 64.9725 205.87 69.8686 182.671 79.4961L170.837 50.8997C197.805 39.7061 226.41 34 255.868 34C339.004 34 414.477 79.8759 452.831 153.753L425.436 168.064Z" fill="url(#paint2_linear_414_2)"/>
<path d="M189.62 210.207C207.529 210.207 222.117 219.786 229.612 236.497L230.205 237.805L260.279 227.56L259.639 226.014C247.992 197.562 221.167 179.877 189.622 179.877C167.445 179.877 149.418 187.008 134.521 201.65C119.722 216.198 112.226 234.499 112.226 256.059C112.226 277.428 119.722 295.637 134.521 310.184C149.418 324.827 167.445 331.957 189.622 331.957C221.167 331.957 247.992 314.272 259.639 285.843L260.281 284.3L230.158 274.029L229.587 275.385C222.875 291.81 207.932 301.626 189.62 301.626C177.145 301.626 166.614 297.254 158.263 288.648C149.822 279.924 145.552 268.966 145.552 256.083C145.552 243.105 149.726 232.36 158.265 223.234C166.59 214.58 177.143 210.207 189.62 210.207Z" fill="#09293F"/>
<path d="M377.998 182.681L335.138 291.477L291.992 182.681H256.697L317.206 331.173L274.156 435.903L305.013 442.06L411.346 182.681H377.998Z" fill="#09293F"/>
<path d="M452.831 153.753C468.446 184.171 478 219.899 478 256.468C478 341.8 430.008 415.885 359.624 453.048L344.417 426.081C405.45 394.252 447.139 330.243 447.139 256.468C447.139 224.452 439.312 194.567 425.437 168.062L452.831 153.753Z" fill="url(#paint3_linear_414_2)"/>
</g>
<defs>
<linearGradient id="paint0_linear_414_2" x1="56.5394" y1="377.351" x2="268.509" y2="433.949" gradientUnits="userSpaceOnUse">
<stop stop-color="#315C55"/>
<stop offset="1" stop-color="#09293F"/>
</linearGradient>
<linearGradient id="paint1_linear_414_2" x1="117.057" y1="121.398" x2="97.3273" y2="313.468" gradientUnits="userSpaceOnUse">
<stop stop-color="#4FB38D"/>
<stop offset="1" stop-color="#315C55"/>
</linearGradient>
<linearGradient id="paint2_linear_414_2" x1="210.059" y1="101.032" x2="366.503" y2="129.712" gradientUnits="userSpaceOnUse">
<stop stop-color="#4FB38D"/>
<stop offset="1" stop-color="#97DEC0"/>
</linearGradient>
<linearGradient id="paint3_linear_414_2" x1="416.365" y1="246.21" x2="331.054" y2="405.932" gradientUnits="userSpaceOnUse">
<stop stop-color="#97DEC0"/>
<stop offset="1" stop-color="#FFFFF0" stop-opacity="0"/>
</linearGradient>
<clipPath id="clip0_414_2">
<rect width="444" height="444" fill="white" transform="translate(34 34)"/>
</clipPath>
</defs>
</svg>
