<svg width="512" height="512" viewBox="0 0 512 512" fill="none" xmlns="http://www.w3.org/2000/svg">
<path fill-rule="evenodd" clip-rule="evenodd" d="M95.1251 376.291V346.675C95.1251 342.653 97.6845 339.728 101.706 339.728H102.803C106.825 339.728 109.384 343.019 109.384 346.675V408.831C109.384 423.822 102.072 435.888 88.9095 443.566C82.6938 447.222 76.1126 449.05 69.1657 449.05H66.2407C51.2501 449.05 39.1845 441.738 31.5063 428.575C27.8501 422.359 26.022 415.778 26.022 408.831V405.906C26.022 390.916 33.3345 378.85 46.497 371.172C52.7126 367.516 59.2938 365.688 66.2407 365.688H69.1657C79.0376 366.053 87.8126 369.709 95.1251 376.291ZM39.9157 407.369C39.9157 418.338 45.4001 426.381 54.9063 431.866C58.9282 434.059 62.9501 435.156 67.3376 435.156C77.9407 435.156 85.9845 430.038 91.4688 420.897C94.0282 416.509 95.1251 412.122 95.1251 407.003C95.1251 397.497 90.7376 390.184 83.0595 384.7C78.3063 381.409 73.1876 379.581 67.7032 379.581C56.0032 379.581 47.5938 385.431 42.4751 396.034C40.647 399.691 39.9157 403.713 39.9157 407.369ZM157.647 366.053H159.475C175.563 366.053 187.994 373.731 195.672 387.991C198.963 393.475 200.425 399.691 200.425 406.272V409.197C200.425 424.188 193.113 436.253 179.95 443.931C173.734 447.588 167.153 449.416 160.206 449.416H157.281C142.291 449.416 130.225 442.103 122.547 428.941C118.891 422.725 117.063 416.144 117.063 409.197V406.272C117.063 391.281 124.741 379.216 137.538 371.538C143.753 367.516 150.7 366.053 157.647 366.053ZM131.322 407.369C131.322 417.972 136.441 425.65 145.581 431.134C149.969 433.694 154.356 434.791 159.475 434.791C170.078 434.791 177.756 429.306 183.241 420.531C185.8 416.144 186.897 411.756 186.897 406.638C186.897 396.766 182.144 389.088 174.1 383.603C169.713 380.678 164.594 379.216 159.475 379.216C147.775 379.216 139.366 385.066 134.247 395.669C132.053 399.691 131.322 403.713 131.322 407.369ZM258.559 381.044C256.366 379.947 252.344 379.581 250.15 379.581C238.45 379.216 230.041 385.797 224.922 396.034C223.094 399.691 222.363 403.347 222.363 407.369C222.363 419.434 228.578 427.844 239.181 432.963C243.203 434.791 247.956 435.156 252.344 435.156C256 435.156 261.484 432.963 264.775 431.134L265.506 430.769H268.431C271.722 431.5 273.916 433.328 273.916 436.984V438.447C273.916 446.856 258.194 449.05 252.344 449.416C231.503 450.878 215.781 439.544 209.931 419.434C208.834 416.144 208.469 412.488 208.469 408.831V405.906C208.469 390.916 216.147 378.85 228.944 371.172C235.159 367.516 241.741 365.688 248.688 365.688H251.613C258.925 365.688 265.872 367.881 272.088 371.903L272.453 372.269L272.819 372.634C273.55 373.731 273.916 374.828 273.916 376.291V377.753C273.916 381.409 271.356 383.238 268.066 383.969H266.969C265.141 383.969 260.388 381.775 258.559 381.044ZM303.897 390.55C309.381 385.066 314.866 379.581 320.35 374.463C321.813 373 327.663 366.784 329.856 366.784H332.781C336.072 367.516 338.266 369.344 338.266 373V374.463C338.266 376.656 335.706 379.581 333.878 381.044L324.006 390.916L307.188 408.1C314.5 415.413 321.813 422.725 328.759 430.038L334.609 436.253C335.341 436.984 336.438 437.716 336.803 438.813C337.534 439.909 337.9 441.006 337.9 442.103V443.931C337.169 447.222 334.975 449.781 331.684 449.781H330.588C328.394 449.781 325.834 447.222 324.006 445.759C320.716 442.834 317.425 439.544 314.5 436.253L303.897 425.65V442.469C303.897 446.491 301.338 449.416 297.316 449.416H296.219C292.197 449.416 289.638 446.125 289.638 442.469V347.041C289.638 343.019 292.197 340.094 296.219 340.094H297.316C301.338 340.094 303.897 343.019 303.897 347.041V390.55ZM477.934 366.419H479.397C483.419 366.419 486.344 369.344 486.344 373.366C486.344 379.216 480.859 380.678 476.106 380.678C469.891 380.678 463.675 384.334 459.653 388.722C454.169 394.206 451.975 400.788 451.975 408.466V442.103C451.975 446.125 449.416 449.05 445.394 449.05H444.297C440.275 449.05 437.716 445.759 437.716 442.103V406.272C437.716 392.378 444.297 381.409 455.631 373.366C462.213 368.978 469.891 366.419 477.934 366.419ZM378.85 433.328C383.969 435.156 389.819 434.791 394.938 434.059C397.497 432.963 404.444 430.038 407.003 430.403H407.734C409.197 431.134 410.659 432.231 411.391 433.694C413.219 437.35 412.488 441.006 408.831 443.2L407.734 443.931C394.572 451.609 380.313 450.513 367.15 443.2C360.934 439.909 356.181 434.791 352.525 428.575L351.794 427.113C343.384 412.488 344.481 396.766 353.988 382.872C357.278 378.119 361.666 374.463 366.784 371.538L368.613 370.441C381.044 363.128 394.572 363.859 407.369 370.075C414.316 373.366 419.8 378.484 423.822 385.066L424.553 386.163C427.478 390.916 423.822 395.303 420.166 398.228C415.778 401.519 411.391 405.541 407.369 409.197C397.497 417.241 387.991 425.284 378.85 433.328ZM366.784 424.919L397.863 398.228C401.519 395.303 405.175 392.013 408.831 388.722C405.906 385.066 401.153 382.506 397.497 381.044C389.453 378.119 381.409 378.85 374.097 383.238C364.591 388.722 360.203 397.863 360.569 408.831C360.569 413.219 362.031 417.241 364.225 421.263C364.956 422.725 365.688 423.822 366.784 424.919ZM291.466 145.216H332.781V187.263H353.622C363.128 187.263 373 185.434 382.141 182.509C386.528 181.047 391.647 178.853 396.034 176.294C390.184 168.616 387.259 159.109 386.528 149.603C385.431 136.806 387.991 119.988 396.766 110.116L401.153 104.997L406.272 109.019C419.434 119.622 430.038 133.881 432.231 150.7C447.953 145.947 466.234 147.044 480.128 155.088L485.613 158.378L482.688 164.228C470.988 186.897 446.491 194.209 422.725 192.747C386.894 281.594 309.381 323.641 215.05 323.641C166.422 323.641 121.816 305.359 96.222 262.216L95.8563 261.484L92.2001 253.806C83.4251 234.794 80.8657 213.953 82.6938 193.112L83.4251 186.897H118.525V145.216H159.841V103.9H242.106V62.5844H291.466V145.216Z" fill="#3A4D54"/>
<path d="M424.919 160.572C427.844 139 411.756 122.181 401.519 114.138C390.184 127.3 388.356 162.4 406.272 177.025C396.034 185.8 375.194 194.209 353.256 194.209H89.2751C87.0814 216.878 91.1032 237.719 100.244 255.634L103.169 261.119C104.997 264.409 107.191 267.334 109.384 270.625C120.353 271.356 130.225 271.722 139.366 271.356C157.281 270.991 171.906 268.797 183.241 265.141C185.069 264.409 186.531 265.506 187.263 266.969C187.994 268.797 186.897 270.259 185.434 270.991C183.972 271.356 182.509 272.088 180.681 272.453C171.906 275.013 162.4 276.475 150.334 277.206H148.141C143.388 277.572 138.269 277.572 132.784 277.572C126.934 277.572 121.45 277.572 114.869 277.206C136.806 302.069 171.175 316.694 214.319 316.694C305.725 316.694 383.238 276.109 417.241 185.434C441.738 187.994 465.138 181.778 475.741 160.938C459.288 151.431 437.35 154.356 424.919 160.572Z" fill="#00AADA"/>
<path d="M424.919 160.572C427.844 139 411.756 122.181 401.519 114.138C390.184 127.3 388.356 162.4 406.272 177.025C396.034 185.8 375.194 194.209 353.256 194.209H104.631C103.534 228.944 116.331 255.269 139.366 270.991C157.281 270.625 171.906 268.431 183.241 264.775C185.069 264.044 186.531 265.141 187.263 266.603C187.994 268.431 186.897 269.894 185.434 270.625C183.972 270.991 182.509 271.722 180.681 272.088C171.906 274.647 161.669 276.475 149.603 277.206L149.238 276.841C180.316 292.928 225.288 292.563 277.206 272.819C334.975 250.516 389.088 208.103 426.747 159.841C426.016 160.206 425.65 160.572 424.919 160.572Z" fill="#28B8EB"/>
<path d="M89.6406 221.631C91.1031 233.697 94.7594 245.031 100.244 255.634L103.169 261.119C104.997 264.409 107.191 267.334 109.384 270.625C120.353 271.356 130.225 271.722 139.366 271.356C157.281 270.991 171.906 268.797 183.241 265.141C185.069 264.409 186.531 265.506 187.263 266.969C187.994 268.797 186.897 270.259 185.434 270.991C183.972 271.356 182.509 272.087 180.681 272.453C171.906 275.012 161.669 276.841 149.603 277.572H148.141C143.388 277.937 138.269 277.937 133.15 277.937C127.3 277.937 121.45 277.937 115.234 277.572C137.172 302.434 171.906 317.059 215.05 317.059C293.294 317.059 361.3 287.444 400.788 221.997H89.6406V221.631Z" fill="#028BB8"/>
<path d="M107.191 221.631C111.944 242.837 122.913 259.656 139.366 270.991C157.281 270.625 171.906 268.431 183.241 264.775C185.069 264.044 186.531 265.141 187.263 266.603C187.994 268.431 186.897 269.894 185.434 270.625C183.972 270.991 182.509 271.722 180.681 272.088C171.906 274.647 161.669 276.475 149.238 277.206C180.316 293.294 225.288 292.928 276.841 273.184C307.919 261.119 338.266 243.203 365.322 221.631H107.191Z" fill="#019BC6"/>
<path fill-rule="evenodd" clip-rule="evenodd" d="M125.106 151.797H160.937V187.628H125.106V151.797ZM128.031 155.087H130.956V184.703H128.031V155.087ZM133.516 155.087H136.441V184.703H133.516V155.087ZM139 155.087H141.925V184.703H139V155.087ZM144.119 155.087H147.044V184.703H144.119V155.087ZM149.603 155.087H152.528V184.703H149.603V155.087ZM155.087 155.087H158.012V184.703H155.087V155.087ZM166.422 110.847H202.253V146.312H166.422V110.847ZM169.347 113.772H172.272V143.387H169.347V113.772ZM174.831 113.772H177.756V143.387H174.831V113.772ZM179.95 113.772H182.875V143.387H179.95V113.772ZM185.434 113.772H188.359V143.387H185.434V113.772ZM190.919 113.772H193.844V143.387H190.919V113.772ZM196.403 113.772H199.328V143.387H196.403V113.772Z" fill="#00ACD3"/>
<path fill-rule="evenodd" clip-rule="evenodd" d="M166.422 151.797H202.253V187.628H166.422V151.797ZM169.347 155.088H172.272V184.703H169.347V155.088ZM174.831 155.088H177.756V184.703H174.831V155.088ZM179.95 155.088H182.875V184.703H179.95V155.088ZM185.434 155.088H188.359V184.703H185.434V155.088ZM190.919 155.088H193.844V184.703H190.919V155.088ZM196.403 155.088H199.328V184.703H196.403V155.088Z" fill="#23C2EE"/>
<path fill-rule="evenodd" clip-rule="evenodd" d="M207.738 151.797H243.569V187.628H207.738V151.797ZM210.663 155.088H213.588V184.703H210.663V155.088ZM215.781 155.088H218.706V184.703H215.781V155.088ZM221.266 155.088H224.191V184.703H221.266V155.088ZM226.75 155.088H229.675V184.703H226.75V155.088ZM232.234 155.088H235.159V184.703H232.234V155.088ZM237.353 155.088H240.278V184.703H237.353V155.088Z" fill="#00ACD3"/>
<path fill-rule="evenodd" clip-rule="evenodd" d="M207.738 110.847H243.569V146.312H207.738V110.847ZM210.663 113.772H213.588V143.387H210.663V113.772ZM215.781 113.772H218.706V143.387H215.781V113.772ZM221.266 113.772H224.191V143.387H221.266V113.772ZM226.75 113.772H229.675V143.387H226.75V113.772ZM232.234 113.772H235.159V143.387H232.234V113.772ZM237.353 113.772H240.278V143.387H237.353V113.772ZM248.688 151.797H284.519V187.628H248.688V151.797ZM251.978 155.087H254.903V184.703H251.978V155.087ZM257.097 155.087H260.022V184.703H257.097V155.087ZM262.581 155.087H265.506V184.703H262.581V155.087ZM268.066 155.087H270.991V184.703H268.066V155.087ZM273.184 155.087H276.109V184.703H273.184V155.087ZM278.669 155.087H281.594V184.703H278.669V155.087Z" fill="#23C2EE"/>
<path fill-rule="evenodd" clip-rule="evenodd" d="M248.688 110.847H284.519V146.312H248.688V110.847ZM251.978 113.772H254.903V143.387H251.978V113.772ZM257.097 113.772H260.022V143.387H257.097V113.772ZM262.581 113.772H265.506V143.387H262.581V113.772ZM268.066 113.772H270.991V143.387H268.066V113.772ZM273.184 113.772H276.109V143.387H273.184V113.772ZM278.669 113.772H281.594V143.387H278.669V113.772Z" fill="#00ACD3"/>
<path fill-rule="evenodd" clip-rule="evenodd" d="M248.688 69.5312H284.519V105.362H248.688V69.5312ZM251.978 72.4563H254.903V102.437H251.978V72.4563ZM257.097 72.4563H260.022V102.437H257.097V72.4563ZM262.581 72.4563H265.506V102.437H262.581V72.4563ZM268.066 72.4563H270.991V102.437H268.066V72.4563ZM273.184 72.4563H276.109V102.437H273.184V72.4563ZM278.669 72.4563H281.594V102.437H278.669V72.4563Z" fill="#23C2EE"/>
<path fill-rule="evenodd" clip-rule="evenodd" d="M290.003 151.797H325.834V187.628H290.003V151.797ZM292.928 155.088H295.853V184.703H292.928V155.088ZM298.413 155.088H301.338V184.703H298.413V155.088ZM303.897 155.088H306.822V184.703H303.897V155.088ZM309.016 155.088H311.941V184.703H309.016V155.088ZM314.5 155.088H317.425V184.703H314.5V155.088ZM319.984 155.088H322.909V184.703H319.984V155.088Z" fill="#00ACD3"/>
<path fill-rule="evenodd" clip-rule="evenodd" d="M199.694 245.762C205.178 245.762 209.566 250.15 209.566 255.634C209.566 261.119 205.178 265.506 199.694 265.506C194.209 265.506 189.822 261.119 189.822 255.634C190.187 250.15 194.575 245.762 199.694 245.762Z" fill="#D4EEF1"/>
<path fill-rule="evenodd" clip-rule="evenodd" d="M199.694 248.322C200.425 248.322 201.522 248.322 202.253 248.688C201.522 249.053 200.791 250.15 200.791 251.247C200.791 252.709 202.253 254.172 203.716 254.172C204.813 254.172 205.909 253.441 206.275 252.709C206.641 253.441 206.641 254.538 206.641 255.269C206.641 259.291 203.35 262.216 199.694 262.216C195.672 262.216 192.747 258.925 192.747 255.269C192.747 251.613 196.037 248.322 199.694 248.322ZM25.6562 225.287H483.784C473.913 222.728 452.341 219.438 455.631 206.275C437.35 227.116 393.841 220.9 382.506 210.662C370.075 228.578 298.413 221.631 293.659 207.738C278.303 226.019 230.406 226.019 215.05 207.738C209.931 221.631 138.269 228.578 126.203 210.662C115.234 220.9 71.3594 227.116 53.0781 206.275C57.1 219.072 35.5281 222.728 25.6562 225.287Z" fill="#3A4D54"/>
<path d="M226.019 316.694C201.522 304.994 188.359 289.272 180.681 272.088C171.541 274.647 160.572 276.475 148.141 277.206C143.387 277.572 138.269 277.572 133.15 277.572C126.934 277.572 120.719 277.572 114.137 277.206C136.441 299.509 164.228 316.694 215.05 317.059C218.706 316.694 222.362 316.694 226.019 316.694Z" fill="#BFDBE0"/>
<path d="M189.822 287.809C186.531 283.056 183.241 277.572 180.681 272.088C171.541 274.647 160.572 276.475 148.141 277.206C156.916 281.959 169.347 286.347 189.822 287.809Z" fill="#D4EEF1"/>
</svg>
