<svg width="512" height="512" viewBox="0 0 512 512" fill="none" xmlns="http://www.w3.org/2000/svg">
<g clip-path="url(#clip0_413_2)">
<path d="M63.6641 320.944L180.032 99.2L294.512 37.84L328.56 55.024L214.768 119.312L332.336 472.72L294.512 450.72L206.512 247.888L90.9921 335.552L63.6641 320.944Z" fill="white"/>
<path d="M403.84 263.52C427.575 263.52 446.816 245.59 446.816 223.472C446.816 201.354 427.575 183.424 403.84 183.424C380.105 183.424 360.864 201.354 360.864 223.472C360.864 245.59 380.105 263.52 403.84 263.52Z" fill="white"/>
<path d="M435.2 205.6C431.335 200.113 426.117 195.719 420.052 192.845C413.987 189.971 407.282 188.714 400.587 189.197C393.893 189.68 387.438 191.887 381.849 195.602C376.259 199.317 371.726 204.415 368.688 210.4C365.701 216.841 364.742 224.038 365.939 231.036C367.136 238.034 370.433 244.503 375.392 249.584C388.984 250.668 402.511 246.818 413.495 238.74C424.479 230.662 432.185 218.897 435.2 205.6ZM319.616 54.4L294.864 40.816L187.088 100.8L195.68 105.44L212.016 114.032L241.6 97.6L319.632 54.112L319.616 54.4ZM329.584 50.272C330.226 50.4285 330.816 50.7478 331.298 51.1991C331.78 51.6503 332.138 52.2182 332.336 52.848L368.432 159.36C368.802 160.205 368.83 161.16 368.511 162.025C368.192 162.89 367.55 163.598 366.72 164C352.945 171.56 342.124 183.548 336.009 198.023C329.893 212.498 328.842 228.613 333.024 243.76C338.017 260.244 348.623 274.46 363.002 283.941C377.382 293.422 394.627 297.57 411.744 295.664C412.684 295.604 413.619 295.837 414.421 296.329C415.223 296.822 415.853 297.551 416.224 298.416L453.52 407.744C453.762 408.625 453.726 409.558 453.416 410.418C453.107 411.277 452.54 412.019 451.792 412.544L337.152 479.568C336.607 479.804 336.019 479.924 335.424 479.92C334.367 480.118 333.274 479.936 332.336 479.408L292.112 454.128C291.379 453.747 290.781 453.149 290.4 452.416L211.84 271.776L92.2084 339.84C91.4942 340.205 90.7092 340.409 89.9079 340.44C89.1065 340.47 88.3082 340.325 87.5684 340.016L60.3684 324.544C59.479 324.066 58.8061 323.267 58.4878 322.309C58.1694 321.35 58.2298 320.307 58.6564 319.392L174.88 98.848C175.315 98.0939 175.975 97.4951 176.768 97.136L292.624 32.512C293.26 32.173 293.968 31.9957 294.688 31.9957C295.408 31.9957 296.117 32.173 296.752 32.512L329.584 50.272ZM185.888 109.504L180.208 106.592L68.2084 319.904L88.6564 331.424L185.264 205.024C185.738 204.442 186.343 203.981 187.031 203.68C187.718 203.38 188.468 203.248 189.216 203.296C189.951 203.429 190.644 203.73 191.241 204.178C191.838 204.625 192.323 205.205 192.656 205.872L297.856 448.24L325.968 465.6L213.04 135.472L208.24 121.712L185.728 109.344L185.888 109.504ZM359.152 236.704C356.579 227.191 357.302 217.086 361.204 208.036C365.106 198.986 371.956 191.524 380.64 186.864C389.449 181.937 399.599 179.948 409.615 181.185C419.631 182.423 428.992 186.822 436.336 193.744C444.652 201.735 449.454 212.7 449.688 224.23C449.922 235.76 445.569 246.911 437.584 255.232L436.336 256.48C430.576 261.995 423.505 265.951 415.791 267.974C408.077 269.996 399.974 270.019 392.249 268.04C384.524 266.06 377.431 262.144 371.639 256.661C365.848 251.178 361.551 244.31 359.152 236.704Z" fill="black"/>
</g>
<defs>
<clipPath id="clip0_413_2">
<rect width="512" height="512" fill="white"/>
</clipPath>
</defs>
</svg>
