<svg width="512" height="512" viewBox="0 0 512 512" fill="none" xmlns="http://www.w3.org/2000/svg">
<g clip-path="url(#clip0_45_239)">
<path d="M181.5 480C222.624 480 256 446.549 256 405.333V330.667H181.5C140.376 330.667 107 364.117 107 405.333C107 446.549 140.376 480 181.5 480Z" fill="#0ACF83"/>
<path d="M107 256C107 214.784 140.376 181.333 181.5 181.333H256V330.667H181.5C140.376 330.667 107 297.216 107 256Z" fill="#A259FF"/>
<path d="M107 106.667C107 65.4507 140.376 32 181.5 32H256V181.333H181.5C140.376 181.333 107 147.883 107 106.667Z" fill="#F24E1E"/>
<path d="M256 32H330.5C371.624 32 405 65.4507 405 106.667C405 147.883 371.624 181.333 330.5 181.333H256V32Z" fill="#FF7262"/>
<path d="M405 256C405 297.216 371.624 330.667 330.5 330.667C289.376 330.667 256 297.216 256 256C256 214.784 289.376 181.333 330.5 181.333C371.624 181.333 405 214.784 405 256Z" fill="#1ABCFE"/>
</g>
<defs>
<clipPath id="clip0_45_239">
<rect width="298" height="448" fill="white" transform="translate(107 32)"/>
</clipPath>
</defs>
</svg>
