<svg width="512" height="512" viewBox="0 0 512 512" fill="none" xmlns="http://www.w3.org/2000/svg">
<path d="M114.628 412.814L83.1699 60H428.83L397.33 412.758L255.79 452L114.628 412.814Z" fill="#E44F26"/>
<path d="M256 422.012L370.38 390.302L397.288 88.854H256V422.012Z" fill="#F1662A"/>
<path d="M256 219.698H198.74L194.792 175.388H256V132.114H147.5L148.536 143.734L159.162 262.972H256V219.698ZM256 332.076L255.804 332.132L207.616 319.126L204.536 284.616H161.094L167.156 352.544L255.804 377.156L256 377.1V332.076Z" fill="#EBEBEB"/>
<path d="M255.846 219.698V262.972H309.13L304.118 319.098L255.846 332.118V377.142L344.564 352.544L345.208 345.236L355.372 231.318L356.436 219.698H255.846ZM255.846 132.114V175.388H360.37L361.238 165.672L363.212 143.734L364.248 132.114H255.846Z" fill="white"/>
</svg>
