<svg width="512" height="512" viewBox="0 0 512 512" fill="none" xmlns="http://www.w3.org/2000/svg">
<g clip-path="url(#clip0_45_115)">
<path d="M32 32H480V480H32V32Z" fill="#F7DF1E"/>
<path d="M149.796 406.381L184.079 385.633C190.694 397.36 196.71 407.282 211.142 407.282C224.976 407.282 233.7 401.871 233.7 380.822V237.676H275.799V381.417C275.799 425.022 250.239 444.87 212.947 444.87C179.268 444.87 159.719 427.428 149.794 406.378L149.796 406.381ZM298.667 401.87L332.946 382.023C341.97 396.76 353.699 407.585 374.447 407.585C391.893 407.585 403.016 398.863 403.016 386.833C403.016 372.399 391.588 367.286 372.342 358.868L361.819 354.354C331.444 341.426 311.297 325.186 311.297 290.904C311.297 259.327 335.354 235.268 372.946 235.268C399.71 235.268 418.957 244.592 432.789 268.95L400.008 290.002C392.789 277.072 384.973 271.96 372.944 271.96C360.613 271.96 352.794 279.779 352.794 290.002C352.794 302.632 360.613 307.747 378.656 315.566L389.18 320.076C424.968 335.415 445.116 351.051 445.116 386.233C445.116 424.128 415.345 444.876 375.348 444.876C336.255 444.876 310.994 426.231 298.665 401.871" fill="black"/>
</g>
<defs>
<clipPath id="clip0_45_115">
<rect width="448" height="448" fill="white" transform="translate(32 32)"/>
</clipPath>
</defs>
</svg>
