<svg width="512" height="512" viewBox="0 0 512 512" fill="none" xmlns="http://www.w3.org/2000/svg">
<path d="M213.268 270.284C213.268 270.284 200.979 277.435 222.029 279.853C247.528 282.764 260.562 282.345 288.658 277.035C288.658 277.035 296.064 281.664 306.378 285.676C243.374 312.668 163.785 284.111 213.268 270.284ZM205.563 235.051C205.563 235.051 191.777 245.264 212.842 247.442C240.085 250.252 261.591 250.484 298.833 243.314C298.833 243.314 303.971 248.538 312.066 251.386C235.905 273.667 151.073 253.141 205.563 235.051Z" fill="#0074BD"/>
<path d="M270.463 175.285C285.997 193.165 266.392 209.241 266.392 209.241C266.392 209.241 305.808 188.895 287.707 163.407C270.796 139.648 257.837 127.849 328.014 87.1487C328.014 87.1487 217.852 114.654 270.463 175.285Z" fill="#EA2D2E"/>
<path d="M353.791 296.345C353.791 296.345 362.892 303.848 343.769 309.648C307.41 320.661 192.42 323.984 160.481 310.086C149.007 305.09 170.536 298.159 177.306 296.704C184.367 295.173 188.401 295.454 188.401 295.454C175.633 286.461 105.867 313.113 152.966 320.759C281.413 341.576 387.104 311.381 353.791 296.345ZM219.185 198.546C219.185 198.546 160.698 212.441 198.475 217.493C214.432 219.626 246.218 219.136 275.849 216.651C300.057 214.619 324.351 210.274 324.351 210.274C324.351 210.274 315.823 213.934 309.644 218.148C250.241 233.771 135.509 226.493 168.541 210.521C196.469 197.008 219.185 198.546 219.185 198.546ZM324.108 257.186C384.488 225.819 356.568 195.672 337.082 199.732C332.318 200.728 330.178 201.589 330.178 201.589C330.178 201.589 331.955 198.804 335.335 197.611C373.887 184.064 403.528 237.581 322.903 258.777C322.903 258.777 323.827 257.938 324.108 257.186Z" fill="#0074BD"/>
<path d="M287.711 21.4135C287.711 21.4135 321.148 54.8649 255.993 106.294C203.744 147.559 244.078 171.082 255.97 197.97C225.471 170.45 203.101 146.223 218.107 123.68C240.144 90.5916 301.198 74.5413 287.711 21.4135Z" fill="#EA2D2E"/>
<path d="M225.123 342.216C283.067 345.921 372.075 340.154 374.182 312.735C374.182 312.735 370.133 323.127 326.286 331.375C276.821 340.686 215.805 339.604 179.625 333.632C179.625 333.632 187.035 339.769 225.123 342.216Z" fill="#0074BD"/>
<path d="M371.507 391.396H369.74V390.408H374.493V391.396H372.734V396.325H371.503L371.507 391.396ZM380.993 391.643H380.971L379.219 396.325H378.411L376.671 391.643H376.652V396.325H375.485V390.408H377.195L378.808 394.596L380.424 390.408H382.123V396.325H380.993V391.643ZM215.626 446.99C210.162 451.728 204.384 454.392 199.194 454.392C191.807 454.392 187.799 449.954 187.799 442.847C187.799 435.157 192.087 429.525 209.272 429.525H215.622L215.626 446.99ZM230.711 464.009V411.331C230.711 397.863 223.028 388.979 204.526 388.979C193.726 388.979 184.259 391.651 176.561 395.048L178.776 404.378C184.839 402.151 192.679 400.085 200.373 400.085C211.038 400.085 215.622 404.378 215.622 413.262V419.919H210.293C184.393 419.919 172.707 429.967 172.707 445.078C172.707 458.097 180.408 465.495 194.909 465.495C204.227 465.495 211.191 461.648 217.691 456.016L218.874 464.013L230.711 464.009ZM281.05 464.009H262.238L239.594 390.33H256.026L270.082 435.606L273.207 449.209C280.302 429.533 285.332 409.557 287.846 390.333H303.829C299.552 414.586 291.843 441.22 281.05 464.009ZM353.23 446.99C347.747 451.728 341.966 454.392 336.794 454.392C329.399 454.392 325.395 449.954 325.395 442.847C325.395 435.157 329.695 429.525 346.861 429.525H353.226L353.23 446.99ZM368.322 464.009V411.331C368.322 397.863 360.617 388.979 342.13 388.979C331.319 388.979 321.855 391.651 314.158 395.048L316.377 404.378C322.439 402.151 330.29 400.085 337.984 400.085C348.634 400.085 353.23 404.378 353.23 413.262V419.919H347.901C321.994 419.919 310.311 429.967 310.311 445.078C310.311 458.097 318.005 465.495 332.502 465.495C341.824 465.495 348.777 461.648 355.295 456.016L356.485 464.013L368.322 464.009ZM156.166 476.531C151.874 482.814 144.921 487.787 137.317 490.59L129.874 481.815C135.663 478.844 140.621 474.05 142.93 469.582C144.921 465.604 145.748 460.488 145.748 448.247V364.116H161.779V447.091C161.779 463.463 160.477 470.083 156.166 476.531Z" fill="#EA2D2E"/>
</svg>
