<svg width="512" height="512" viewBox="0 0 512 512" fill="none" xmlns="http://www.w3.org/2000/svg">
<g clip-path="url(#clip0_203_17)">
<path d="M440.324 251.979C440.324 229.012 420.889 210.393 396.917 210.393C395.374 210.393 393.853 210.472 392.353 210.624L451.973 42.1568H198.609L258.146 210.477C257.268 210.424 256.388 210.396 255.508 210.394C231.535 210.394 212.101 229.011 212.101 251.981C212.101 270.545 224.8 286.263 242.327 291.61C233.07 306.972 221.421 320.81 208.196 332.765C190.212 349.018 169.63 361.343 147.37 368.937C120.866 355.893 108.352 326.884 119.644 301.449C120.919 298.576 122.221 295.665 123.466 292.766C142.666 288.473 156.975 271.982 156.975 252.278C156.975 229.31 137.54 210.692 113.566 210.692C89.5925 210.692 70.1593 229.31 70.1593 252.278C70.1593 266.363 77.4725 278.804 88.654 286.326C77.9104 309.762 62.1173 334.289 57.1966 362.716C51.2994 396.783 57.1768 432.946 87.9319 453.369C159.558 500.929 237.307 423.884 319.283 404.516C348.992 397.498 381.605 398.629 407.779 384.106C427.436 373.199 440.395 355.122 444.071 334.829C447.707 314.781 442.409 294.821 430.228 278.636C436.763 271.166 440.338 261.726 440.324 251.979Z" fill="#99425B"/>
<path d="M433.627 333.091C430.434 350.71 419.076 366.099 402.467 375.317C386.983 383.908 368.429 386.472 348.782 389.186C338.258 390.639 327.376 392.145 316.745 394.655C288.635 401.296 261.408 414.253 235.079 426.783C182.386 451.858 136.881 473.511 93.9726 445.02C62.5417 424.15 63.9925 385.537 67.654 364.378C71.048 344.774 80.2234 326.719 89.0949 309.26C90.6063 306.292 92.1055 303.319 93.5925 300.341C98.0645 302.054 102.757 303.181 107.543 303.694C98.5116 332.25 112.715 363.3 142.525 377.972L146.606 379.98L150.926 378.507C174.493 370.465 196.21 357.563 215.471 340.151C227.921 328.897 238.627 316.447 247.426 303.143C250.101 303.53 252.802 303.724 255.507 303.724C282.869 303.724 305.525 284.127 309.032 258.818C320.231 258.425 332.127 258.422 343.391 258.815C346.894 284.127 369.554 303.725 396.915 303.725C408.356 303.725 418.967 300.29 427.71 294.455C433.779 306.358 436.044 319.751 433.627 333.091ZM113.568 220.849C131.658 220.849 146.373 234.949 146.373 252.28C146.378 258.279 144.58 264.152 141.193 269.198C135.741 277.346 126.471 282.931 115.822 283.627C115.076 283.675 114.324 283.71 113.568 283.71C109.536 283.71 105.674 283.005 102.104 281.726C94.9125 279.135 88.8904 274.221 85.0764 267.832C82.2442 263.098 80.7562 257.736 80.7604 252.28C80.7604 234.949 95.4779 220.849 113.568 220.849ZM222.703 251.981C222.703 236.234 234.853 223.16 250.64 220.899C252.229 220.67 253.855 220.551 255.509 220.551C266.026 220.551 275.39 225.324 281.395 232.72C282.899 234.564 284.183 236.563 285.225 238.68C287.264 242.842 288.319 247.383 288.315 251.981C288.315 254.493 287.997 256.936 287.414 259.278C284.217 272.101 272.804 281.903 258.819 283.252C257.731 283.356 256.628 283.41 255.509 283.41C249.199 283.415 243.023 281.666 237.73 278.375C228.698 272.769 222.703 263.035 222.703 251.981ZM359.625 214.605C352.486 221.134 347.348 229.409 344.769 238.536C332.403 238.099 320.026 238.099 307.66 238.536C304.884 228.67 299.131 219.967 291.39 213.356L325.337 147.593L359.625 214.607V214.605ZM213.396 52.3167H437.184L384.327 201.669C382.053 202.19 379.817 202.854 377.634 203.655L325.42 101.608L273.057 203.046C270.774 202.295 268.441 201.693 266.074 201.243L213.396 52.3167ZM429.721 251.982C429.721 255.133 429.23 258.175 428.326 261.048C426.182 267.813 421.729 273.691 415.681 277.741C410.184 281.437 403.63 283.418 396.915 283.412C381.768 283.412 368.99 273.523 365.233 260.13C364.487 257.473 364.109 254.734 364.109 251.982C364.109 247.686 365.015 243.589 366.651 239.856C367.495 237.946 368.534 236.121 369.754 234.407C375.658 226.058 385.62 220.553 396.915 220.553C397.951 220.553 398.972 220.603 399.985 220.695C416.641 222.182 429.722 235.642 429.722 251.982H429.721ZM450.925 251.982C450.925 226.72 431.926 205.642 406.903 201.14L466.761 32H183.822L243.772 201.482C219.618 206.631 201.501 227.311 201.501 251.981C201.501 270.505 211.719 286.776 227.033 295.919C219.666 306.434 210.932 316.328 200.922 325.377C185.046 339.724 167.361 350.606 148.295 357.766C129.09 346.208 120.972 324.411 129.402 305.424L130.063 303.936L131.302 301.144C152.396 294.094 167.576 274.86 167.576 252.28C167.576 223.747 143.348 200.535 113.568 200.535C83.7859 200.535 59.5576 223.747 59.5576 252.28C59.5576 266.681 65.7373 279.722 75.6811 289.112C73.8265 292.877 71.9439 296.629 70.0334 300.368C60.9406 318.258 50.6366 338.535 46.7387 361.054C38.9991 405.774 51.4842 441.524 81.8956 461.716C100.349 473.969 119.09 478.787 137.948 478.787C173.457 478.787 209.379 461.695 244.513 444.975C269.815 432.936 295.98 420.486 321.824 414.378C331.441 412.107 341.335 410.739 351.811 409.292C372.586 406.42 394.066 403.452 413.095 392.895C435.152 380.655 450.249 360.123 454.519 336.567C458.184 316.344 453.774 296.089 443.017 278.91C448.2 270.806 450.938 261.485 450.927 251.981L450.925 251.982Z" fill="white"/>
</g>
<defs>
<clipPath id="clip0_203_17">
<rect width="423" height="448" fill="white" transform="translate(44.5 32)"/>
</clipPath>
</defs>
</svg>
