<svg width="512" height="512" viewBox="0 0 512 512" fill="none" xmlns="http://www.w3.org/2000/svg">
<g clip-path="url(#clip0_502_29)">
<path d="M171.703 477.038C160.787 477.038 150.478 472.189 143.503 463.397L37.3767 331.537C30.4019 322.746 27.6737 311.532 30.4019 300.617L68.3049 136.02C70.7301 125.107 78.0078 116.316 88.0155 111.467L241.447 38.1083C246.299 35.6856 251.757 34.4725 257.216 34.4725C262.674 34.4725 268.13 35.6838 272.983 38.1101L426.416 111.164C436.421 116.013 443.699 124.804 446.124 135.717L484.027 300.314C486.454 311.227 484.027 322.443 477.054 331.234L370.924 463.094C363.95 471.581 353.641 476.735 342.724 476.735L171.707 477.038H171.703Z" fill="#326DE6"/>
<path d="M256.909 42.0506C261.155 42.0506 265.4 42.9591 269.342 44.7779L422.775 117.832C430.658 121.772 436.722 129.048 438.542 137.536L476.445 302.133C478.567 310.924 476.445 320.019 470.684 326.989L364.555 458.851C359.097 465.822 350.606 469.762 341.814 469.762H171.703C162.909 469.762 154.419 465.822 148.961 458.851L42.833 326.989C37.3747 320.019 35.2505 310.924 37.0718 302.133L74.9747 137.536C77.0971 128.745 82.8582 121.469 90.7418 117.832L244.177 44.4769C248.118 42.9609 252.666 42.0524 256.911 42.0524L256.909 42.0506ZM256.909 27.8028C250.542 27.8028 244.175 29.3188 238.109 32.0461L84.6776 105.405C72.5476 111.164 64.0582 121.772 61.0253 134.807L23.1223 299.406C20.0912 312.44 23.1223 325.778 31.6135 336.388L137.742 468.248C145.93 478.554 158.361 484.313 171.4 484.313H341.509C354.548 484.313 366.981 478.554 375.167 468.248L481.297 336.386C489.786 326.081 492.819 312.44 489.786 299.404L451.884 134.807C448.852 121.772 440.361 111.164 428.233 105.405L275.406 32.0443C269.645 29.3188 263.278 27.8028 256.909 27.8028Z" fill="white"/>
<path d="M410.645 289.099C410.342 289.099 410.342 289.099 410.645 289.099H410.342C410.039 289.099 409.736 289.099 409.736 288.796C409.13 288.796 408.524 288.493 407.916 288.493C405.794 288.19 403.975 287.887 402.155 287.887C401.245 287.887 400.336 287.887 399.122 287.583H398.819C392.452 286.977 387.297 286.371 382.445 284.855C380.322 283.945 379.716 282.734 379.109 281.52C379.109 281.218 378.806 281.218 378.806 280.915L374.864 279.703C376.726 265.444 376.008 250.965 372.742 236.96C369.431 222.838 363.685 209.401 355.761 197.251L358.794 194.523V193.918C358.794 192.402 359.097 190.886 360.309 189.37C363.948 186.035 368.497 183.308 373.955 179.973C374.864 179.367 375.773 179.064 376.684 178.457C378.503 177.548 380.019 176.64 381.839 175.427C382.142 175.124 382.748 174.821 383.355 174.215C383.658 173.911 383.961 173.911 383.961 173.608C388.206 169.97 389.116 163.908 386.084 159.966C384.567 157.844 381.839 156.633 379.109 156.633C376.685 156.633 374.561 157.541 372.439 159.057L371.833 159.663C371.227 159.966 370.922 160.573 370.317 160.876C368.8 162.392 367.586 163.603 366.375 165.119C365.769 165.725 365.163 166.635 364.252 167.241C360.006 171.789 356.064 175.427 352.122 178.154C351.214 178.76 350.305 179.064 349.394 179.064C348.788 179.064 348.181 179.064 347.575 178.76H346.969L343.328 181.186C339.386 176.943 335.142 173.305 330.897 169.667C312.619 155.385 290.622 146.652 267.522 144.507L267.219 140.566L266.614 139.961C265.703 139.05 264.491 138.142 264.186 136.02C263.884 131.169 264.491 125.713 265.097 119.651V119.348C265.097 118.437 265.4 117.226 265.703 116.316C266.006 114.499 266.309 112.678 266.614 110.557V107.829C266.614 102.373 262.367 97.8266 257.214 97.8266C254.786 97.8266 252.361 99.0379 250.542 100.857C248.724 102.676 247.814 105.1 247.814 107.829V110.254C247.814 112.375 248.117 114.194 248.722 116.013C249.025 116.923 249.025 117.832 249.328 119.045V119.348C249.934 125.41 250.845 130.866 250.239 135.717C249.936 137.839 248.722 138.747 247.814 139.658L247.208 140.263L246.903 144.204C241.445 144.81 235.986 145.415 230.528 146.628C207.181 151.782 186.561 163.605 170.491 180.578L167.458 178.457H166.852C166.247 178.457 165.639 178.76 165.033 178.76C164.122 178.76 163.214 178.457 162.303 177.851C158.361 175.124 154.419 171.182 150.175 166.635C149.569 166.03 148.963 165.119 148.052 164.514C146.839 162.998 145.625 161.785 144.109 160.27C143.806 159.966 143.2 159.665 142.594 159.057C142.291 158.754 141.988 158.754 141.988 158.452C140.11 156.9 137.753 156.043 135.316 156.025C132.586 156.025 129.858 157.238 128.342 159.36C125.309 163.301 126.219 169.363 130.464 173C130.767 173 130.767 173.305 131.07 173.305C131.676 173.608 131.981 174.213 132.586 174.516C134.406 175.728 135.922 176.638 137.742 177.548C138.652 177.851 139.561 178.457 140.472 179.064C145.928 182.397 150.478 185.126 154.116 188.461C155.633 189.975 155.633 191.491 155.633 193.007V193.613L158.664 196.342C158.058 197.251 157.452 197.858 157.148 198.767C141.986 222.714 136.225 250.905 140.167 278.793L136.225 280.004C136.225 280.309 135.922 280.309 135.922 280.61C135.317 281.823 134.406 283.036 132.586 283.945C128.039 285.461 122.581 286.068 116.214 286.674H115.909C115 286.674 113.786 286.674 112.878 286.977C111.058 286.977 109.239 287.28 107.116 287.583C106.511 287.583 105.905 287.887 105.297 287.887C104.994 287.887 104.691 287.887 104.386 288.19C98.9282 289.401 95.5923 294.555 96.5029 299.404C97.4136 303.649 101.355 306.378 106.206 306.378C107.117 306.378 107.722 306.378 108.633 306.074C108.936 306.074 109.239 306.074 109.239 305.771C109.845 305.771 110.451 305.468 111.056 305.468C113.181 304.862 114.697 304.257 116.517 303.346C117.425 303.043 118.334 302.436 119.245 302.135H119.548C125.309 300.011 130.464 298.193 135.316 297.587H135.922C137.742 297.587 138.955 298.495 139.864 299.103C140.167 299.103 140.167 299.406 140.47 299.406L144.717 298.8C151.994 321.23 165.942 341.237 184.439 355.787C188.684 359.12 192.928 361.85 197.478 364.579L195.658 368.517C195.658 368.822 195.961 368.822 195.961 369.123C196.567 370.336 197.173 371.852 196.567 373.974C194.749 378.522 192.019 383.068 188.684 388.222V388.524C188.078 389.435 187.472 390.04 186.866 390.949C185.652 392.465 184.742 393.981 183.528 395.8C183.225 396.103 182.922 396.708 182.619 397.316C182.619 397.619 182.316 397.921 182.316 397.921C179.891 403.075 181.711 408.834 186.258 410.956C187.47 411.562 188.684 411.866 189.897 411.866C193.536 411.866 197.175 409.44 198.994 406.105C198.994 405.802 199.297 405.5 199.297 405.5C199.6 404.894 199.903 404.288 200.206 403.984C201.116 401.862 201.419 400.346 202.025 398.527L202.936 395.8C205.058 389.738 206.575 384.887 209.303 380.644C210.515 378.825 212.033 378.522 213.245 377.914C213.548 377.914 213.548 377.914 213.851 377.612L215.975 373.671C229.316 378.825 243.872 381.552 258.425 381.552C267.219 381.552 276.316 380.644 284.808 378.522C290.151 377.327 295.416 375.809 300.575 373.974L302.392 377.309C302.697 377.309 302.697 377.309 303 377.612C304.517 377.914 305.728 378.522 306.942 380.341C309.367 384.584 311.186 389.738 313.309 395.497V395.8L314.219 398.527C314.825 400.346 315.128 402.165 316.037 403.984C316.342 404.589 316.645 404.894 316.948 405.5C316.948 405.802 317.252 406.105 317.252 406.105C319.07 409.743 322.709 411.866 326.348 411.866C327.561 411.866 328.775 411.562 329.986 410.956C332.109 409.745 333.928 407.924 334.536 405.5C335.142 403.075 335.142 400.346 333.93 397.921C333.93 397.619 333.625 397.619 333.625 397.316C333.322 396.71 333.019 396.104 332.716 395.8C331.806 393.981 330.594 392.465 329.381 390.949C328.775 390.04 328.169 389.435 327.563 388.526V388.222C324.225 383.068 321.192 378.522 319.678 373.974C319.072 371.852 319.678 370.641 319.981 369.125C319.981 368.822 320.284 368.822 320.284 368.519L318.767 364.882C334.839 355.485 348.484 342.145 358.794 325.778C364.252 317.289 368.497 307.892 371.528 298.495L375.167 299.101C375.472 299.101 375.472 298.798 375.773 298.798C376.986 298.193 377.897 297.284 379.716 297.284H380.322C385.175 297.89 390.328 299.707 396.091 301.83H396.394C397.303 302.133 398.212 302.739 399.122 303.042C400.942 303.952 402.458 304.558 404.581 305.165C405.186 305.165 405.792 305.468 406.4 305.468C406.703 305.468 407.006 305.468 407.309 305.771C408.219 306.074 408.825 306.074 409.736 306.074C414.284 306.074 418.225 303.043 419.439 299.103C419.439 295.465 416.103 290.615 410.645 289.1V289.099ZM270.251 274.245L256.909 280.612L243.567 274.245L240.233 259.999L249.328 248.481H264.186L273.284 259.999L270.252 274.245H270.251ZM349.394 242.721C351.746 252.745 352.463 263.083 351.516 273.335L305.122 259.999C300.878 258.788 298.452 254.543 299.361 250.299C299.664 249.086 300.272 247.873 301.181 246.965L337.872 213.923C343.025 222.411 346.967 232.113 349.394 242.721ZM323.317 195.737L283.594 223.927C280.258 226.049 275.709 225.442 272.981 222.109C272.072 221.198 271.769 219.985 271.464 218.774L268.736 169.363C289.387 171.74 308.624 181.036 323.317 195.737ZM235.381 170.877C238.716 170.271 241.748 169.666 245.084 169.06L242.355 217.559C242.052 221.802 238.717 225.44 234.167 225.44C232.955 225.44 231.439 225.137 230.528 224.531L190.2 195.737C202.633 183.308 218.097 174.817 235.381 170.877ZM175.645 213.921L211.728 246.052C215.064 248.782 215.367 253.933 212.639 257.268C211.728 258.48 210.516 259.39 209 259.695L162 273.335C160.181 252.722 164.728 231.807 175.645 213.921ZM167.456 296.069L215.672 287.884C219.614 287.581 223.252 290.31 224.161 294.25C224.464 296.067 224.464 297.585 223.858 299.101L205.361 343.66C188.381 332.747 174.734 316.074 167.456 296.069ZM278.136 356.391C271.161 357.907 264.186 358.816 256.909 358.816C246.297 358.816 235.986 356.999 226.285 353.967L250.239 310.62C252.664 307.891 256.606 306.679 259.942 308.498C261.358 309.365 262.593 310.497 263.581 311.831L286.928 353.967C284.2 354.875 281.167 355.483 278.134 356.391H278.136ZM337.264 314.257C329.684 326.382 319.676 336.081 308.155 343.66L289.052 297.886C288.142 294.25 289.658 290.31 293.297 288.489C294.509 287.884 296.025 287.581 297.542 287.581L346.058 295.766C344.239 302.434 341.206 308.498 337.264 314.257Z" fill="white"/>
</g>
<defs>
<clipPath id="clip0_502_29">
<rect width="470" height="457" fill="white" transform="translate(21 27.5)"/>
</clipPath>
</defs>
</svg>
