<svg width="512" height="512" viewBox="0 0 512 512" fill="none" xmlns="http://www.w3.org/2000/svg">
<g clip-path="url(#clip0_203_23)">
<path d="M295.788 33C292.549 33 289.541 33.6944 286.763 34.6196C292.664 38.5496 295.904 43.753 297.522 49.6507C297.64 50.4605 297.871 51.0394 297.986 51.8474C298.102 52.5418 298.217 53.2362 298.217 53.9288C298.681 64.1046 295.557 65.3761 293.357 71.3892C290.003 79.1374 290.928 87.4627 294.978 94.1685C295.324 94.9783 295.788 95.9035 296.366 96.7133C291.97 67.4574 316.382 63.0639 320.894 53.9288C321.24 45.9515 314.646 40.631 309.44 36.9318C304.465 33.9235 299.953 33 295.788 33ZM332.578 39.5903C332.116 42.2506 332.463 41.5562 332.347 42.9449C332.232 43.8702 332.232 45.0263 332.116 45.9515C331.885 46.875 331.654 47.8002 331.306 48.7254C331.075 49.6524 330.729 50.5759 330.382 51.5011C329.918 52.4264 329.572 53.2362 329.108 54.1596C328.762 54.6231 328.531 55.0866 328.182 55.5484L327.489 56.589C326.912 57.3988 326.333 58.2086 325.753 58.9012C325.059 59.5956 324.481 60.4054 323.671 60.9826V61.098C322.976 61.6769 322.283 62.3713 321.473 62.9485C319.044 64.7989 316.267 66.1859 313.72 67.9209C312.912 68.4981 312.102 68.9616 311.407 69.656C310.597 70.2331 309.902 70.8103 309.209 71.5064C308.399 72.199 307.821 72.8934 307.126 73.7032C306.549 74.3958 305.854 75.2073 305.39 76.0154C304.813 76.8252 304.235 77.6332 303.772 78.443C303.308 79.37 302.961 80.1781 302.498 81.1015C302.151 82.0285 301.805 82.8383 301.574 83.7618C301.225 84.8025 300.994 85.7277 300.763 86.6529C300.648 87.1164 300.648 87.6936 300.532 88.1571C300.415 88.6188 300.415 89.0823 300.301 89.5441C300.301 90.4693 300.184 91.51 300.184 92.4352C300.184 93.1295 300.184 93.8222 300.301 94.5165C300.301 95.4417 300.417 96.367 300.648 97.4076C300.763 98.3329 300.994 99.2564 301.225 100.182C301.574 101.109 301.805 102.032 302.153 102.957C302.382 103.534 302.73 104.113 302.961 104.577L276.353 94.2856C271.908 93.0208 267.433 91.8637 262.932 90.8156L255.643 89.0823C248.701 87.6936 241.643 86.6529 234.587 85.9603C234.356 85.9603 234.239 85.8431 234.01 85.8431C227.128 85.1504 220.215 84.8031 213.298 84.8025C208.208 84.8025 203.117 85.0333 198.143 85.3796C191.084 85.8431 184.028 86.7684 176.968 87.9245C175.234 88.1571 173.498 88.5034 171.764 88.8514C168.176 89.5441 164.706 90.3539 161.351 91.1637L156.143 92.5506C154.409 93.245 152.789 94.0548 151.17 94.7474L147.351 96.4824C147.12 96.5979 146.888 96.5979 146.774 96.7133C145.615 97.2905 144.574 97.754 143.533 98.3311C143.254 98.4258 142.983 98.5422 142.723 98.6792C141.45 99.2564 140.178 99.9507 139.137 100.53C138.327 100.876 137.516 101.338 136.823 101.684C136.488 101.897 136.14 102.09 135.782 102.263C134.741 102.84 133.7 103.419 132.772 103.998C131.815 104.524 130.888 105.103 129.997 105.733C129.186 106.31 128.378 106.774 127.683 107.351C127.568 107.466 127.452 107.466 127.335 107.582C126.642 108.045 125.832 108.622 125.137 109.201L124.906 109.432L123.172 110.819C122.939 110.936 122.708 111.167 122.477 111.283C121.899 111.744 121.32 112.323 120.741 112.787C120.625 113.016 120.394 113.133 120.279 113.249C119.584 113.943 118.889 114.52 118.196 115.214C118.079 115.214 118.079 115.33 117.965 115.445C117.271 116.022 116.576 116.717 115.883 117.411C115.766 117.527 115.766 117.642 115.65 117.642C115.073 118.219 114.495 118.798 113.916 119.493C113.685 119.723 113.338 119.954 113.106 120.185C112.528 120.879 111.833 121.574 111.139 122.266C111.023 122.499 110.792 122.615 110.675 122.845C109.751 123.771 108.941 124.696 108.015 125.621L107.668 125.967C105.817 127.933 103.85 129.899 101.767 131.634C99.7159 133.464 97.5516 135.163 95.2872 136.722C93.0438 138.294 90.7278 139.761 88.3467 141.116C85.9854 142.41 83.5518 143.568 81.058 144.584C78.5968 145.629 76.0867 146.556 73.5365 147.36C68.6785 148.4 63.7015 150.366 59.4227 150.713C58.4952 150.713 57.4557 150.943 56.53 151.059C55.5628 151.278 54.5985 151.509 53.6372 151.753L50.86 152.794C49.9342 153.14 49.0102 153.604 48.0845 154.065C47.2742 154.643 46.3485 155.106 45.5382 155.685C44.728 156.262 43.9195 156.957 43.2247 157.651C42.4145 158.228 41.6042 159.038 40.9112 159.732C40.2165 160.542 39.5217 161.236 38.9442 162.044C38.3667 162.97 37.672 163.779 37.2082 164.703C36.6307 165.514 36.0515 166.438 35.5877 167.363C35.1257 168.404 34.6637 169.329 34.3155 170.372C33.9505 171.367 33.6034 172.369 33.2742 173.376C33.0432 174.302 32.8122 175.227 32.6967 176.152C32.6967 176.267 32.5795 176.383 32.5795 176.498C32.3485 177.539 32.3485 178.928 32.233 179.62C32.1175 180.43 32.002 181.124 32.002 181.933C32.002 182.396 32.002 182.973 32.1175 183.437C32.233 184.246 32.3485 184.941 32.5812 185.633C32.8122 186.328 33.0432 187.02 33.3915 187.715V187.83C33.738 188.525 34.2 189.219 34.6637 189.912C35.1257 190.606 35.5895 191.3 36.1687 191.993C36.7462 192.57 37.4392 193.266 38.134 193.843C38.8287 194.538 39.5235 195.115 40.332 195.694C43.1092 198.121 43.804 198.931 47.3897 200.782C47.9672 201.128 48.5465 201.359 49.2412 201.707C49.3567 201.707 49.4722 201.822 49.5877 201.822C49.5877 202.053 49.5877 202.169 49.705 202.4C49.8204 203.327 50.0515 204.25 50.2824 205.175C50.5135 206.216 50.86 207.141 51.2082 207.951C51.5547 208.645 51.7857 209.338 52.134 210.032C52.2495 210.263 52.365 210.496 52.4805 210.609C52.9442 211.536 53.408 212.344 53.87 213.154L55.6042 215.582C56.1817 216.276 56.8765 217.086 57.5712 217.78C58.266 218.473 58.9607 219.052 59.7692 219.745C59.7692 219.745 59.8864 219.862 60.0002 219.862C60.695 220.439 61.3897 221.016 62.0827 221.48C62.893 222.057 63.7032 222.52 64.629 222.984C65.4392 223.445 66.365 223.909 67.289 224.255C67.9837 224.602 68.794 224.832 69.6042 225.065C69.7197 225.181 69.8352 225.181 70.0662 225.296C70.53 225.411 71.1075 225.527 71.5712 225.642C71.2229 231.886 71.1075 237.784 72.0332 239.865C73.0745 242.178 78.1652 235.125 83.256 227.031C82.563 235.008 82.1009 244.374 83.256 247.15C84.5282 250.041 91.4705 241.021 97.487 231.076C179.516 212.114 254.371 268.773 262.239 348.791C260.734 336.303 245.348 329.364 238.29 331.099C234.818 339.656 228.919 350.641 219.432 357.462C220.241 349.831 219.894 341.968 218.274 334.337C215.729 344.974 210.754 354.919 203.927 363.476C192.937 364.285 181.947 358.967 176.16 350.988C175.698 350.641 175.582 349.947 175.236 349.483C174.888 348.675 174.541 347.866 174.308 347.056C173.972 346.281 173.738 345.464 173.615 344.628C173.5 343.818 173.5 343.008 173.5 342.083V340.35C173.615 339.54 173.846 338.73 174.077 337.921C174.308 337.113 174.541 336.303 174.888 335.493C175.351 334.683 175.698 333.873 176.275 333.065C178.242 327.514 178.242 323.005 174.657 320.345C173.962 319.892 173.226 319.505 172.459 319.19C171.995 319.073 171.417 318.841 170.954 318.727C170.607 318.61 170.376 318.494 170.028 318.379C169.219 318.148 168.409 317.917 167.599 317.802C166.809 317.573 165.992 317.456 165.17 317.454C164.36 317.338 163.434 317.223 162.624 317.223C162.046 317.223 161.469 317.338 160.888 317.338C159.964 317.338 159.153 317.455 158.343 317.686C157.533 317.802 156.723 317.917 155.914 318.148C155.104 318.379 154.294 318.611 153.483 318.958C152.675 319.304 151.978 319.652 151.17 319.998C150.475 320.345 149.782 320.808 148.972 321.154C122.015 338.732 138.096 379.895 156.492 391.806C149.549 393.078 142.492 394.582 140.526 396.084L140.295 396.315C145.269 399.323 150.475 401.866 155.914 404.063C163.318 406.491 171.186 408.688 174.657 409.613V409.728C184.242 411.693 194.044 412.393 203.812 411.81C255.066 408.224 297.064 369.258 304.699 317.917C304.93 318.958 305.163 319.883 305.394 320.924C305.74 323.005 306.204 325.202 306.435 327.398V327.516C306.666 328.556 306.782 329.597 306.899 330.522V330.984C307.014 332.025 307.13 333.065 307.13 333.991C307.245 335.262 307.361 336.534 307.361 337.807V339.656C307.361 340.235 307.476 340.929 307.476 341.506C307.476 342.2 307.361 342.895 307.361 343.587V345.207C307.361 346.017 307.245 346.711 307.245 347.519C307.245 347.983 307.245 348.444 307.128 349.023C307.128 349.831 307.013 350.641 307.013 351.566C306.897 351.913 306.897 352.261 306.897 352.607C306.782 353.532 306.666 354.342 306.549 355.266C306.549 355.614 306.549 355.96 306.433 356.308C306.318 357.462 306.087 358.505 305.971 359.661V359.892C305.74 360.932 305.508 362.09 305.277 363.131V363.477L304.582 366.599C304.582 366.715 304.466 366.946 304.466 367.061C304.235 368.102 304.004 369.142 303.656 370.185V370.531C303.31 371.687 302.963 372.728 302.732 373.768C302.615 373.884 302.615 373.999 302.615 373.999L301.574 377.468C301.112 378.626 300.765 379.666 300.301 380.822C299.839 381.977 299.491 383.134 299.029 384.175C298.565 385.331 298.102 386.372 297.641 387.528H297.524C297.062 388.569 296.598 389.725 296.019 390.765C295.925 391.044 295.809 391.315 295.673 391.575C295.557 391.692 295.557 391.806 295.442 391.923C287.922 407.07 276.815 420.368 262.932 430.774C262.004 431.351 261.08 432.048 260.155 432.74C259.924 432.971 259.577 433.088 259.344 433.317C258.534 433.896 257.726 434.475 256.8 435.052L257.146 435.747H257.262L262.122 435.052H262.237C265.247 434.591 268.254 434.012 271.262 433.435C272.072 433.319 272.998 433.088 273.806 432.857C274.386 432.74 274.848 432.625 275.427 432.509C276.237 432.394 277.047 432.163 277.856 432.046C278.551 431.815 279.245 431.7 279.938 431.469C291.509 428.693 302.732 424.877 313.491 420.368C295.095 445.459 270.452 465.695 241.643 478.993C254.948 478.068 268.254 475.871 281.097 472.172C327.722 458.411 366.943 427.075 390.43 384.87C385.662 411.642 375.034 437.031 359.306 459.22C370.519 451.828 380.879 443.219 390.197 433.55C416.115 406.493 433.121 372.149 438.907 335.262C442.853 353.562 443.985 372.357 442.261 390.998C525.794 274.555 449.204 153.836 417.156 122.037C417.039 121.806 416.925 121.691 416.925 121.46C416.808 121.576 416.808 121.576 416.808 121.691C416.808 121.574 416.808 121.574 416.692 121.46C416.692 122.847 416.577 124.234 416.461 125.623C416.115 128.281 415.766 130.826 415.304 133.371C414.727 135.914 414.032 138.457 413.337 141.002C412.513 143.505 411.587 145.973 410.56 148.4C409.497 150.797 408.339 153.151 407.09 155.456C405.818 157.653 404.43 159.965 402.925 162.046C401.437 164.197 399.855 166.28 398.182 168.29C396.445 170.371 394.595 172.222 392.743 174.072C391.654 175.069 390.535 176.032 389.389 176.962C388.461 177.772 387.653 178.466 386.727 179.276C384.644 180.894 382.562 182.398 380.248 183.785C378.05 185.172 375.735 186.56 373.423 187.717C370.991 188.873 368.562 189.913 366.133 190.954C363.667 191.884 361.158 192.694 358.613 193.382C356.055 194.07 353.468 194.649 350.861 195.117C348.201 195.58 345.541 195.811 342.994 196.042C341.143 196.157 339.291 196.273 337.44 196.273C334.78 196.273 332.118 196.042 329.574 195.811C326.912 195.578 324.25 195.232 321.706 194.653C319.046 194.191 316.499 193.499 313.953 192.689H313.838C316.384 192.456 318.93 192.226 321.475 191.762C324.085 191.307 326.672 190.729 329.227 190.029C331.771 189.342 334.28 188.531 336.745 187.601C339.291 186.674 341.72 185.52 344.036 184.362C346.465 183.208 348.663 181.934 350.976 180.547C353.174 179.043 355.374 177.539 357.456 175.921C359.529 174.311 361.499 172.573 363.356 170.718C365.323 168.983 367.059 167.019 368.795 165.051C370.486 163.026 372.106 160.944 373.653 158.807C373.884 158.461 374.116 157.999 374.347 157.653C375.504 155.802 376.661 153.952 377.702 152.101C378.975 149.808 380.134 147.454 381.174 145.047C382.219 142.628 383.145 140.159 383.95 137.649C384.76 135.218 385.339 132.675 385.917 130.132C386.38 127.473 386.844 124.928 387.073 122.384C387.304 119.725 387.537 117.067 387.537 114.522C387.537 112.671 387.422 110.821 387.306 108.97C387.075 106.312 386.729 103.767 386.379 101.222C385.924 98.6142 385.346 96.0292 384.646 93.4758C383.834 91.0482 383.026 88.5034 382.1 86.0758C381.172 83.6481 380.017 81.2187 378.861 78.9065C377.587 76.5943 376.314 74.2804 374.927 72.0853C373.449 69.9179 371.906 67.7965 370.298 65.7242C368.556 63.7296 366.782 61.7635 364.976 59.8265C364.001 58.8346 362.998 57.8711 361.968 56.9371C356.785 52.9136 351.418 49.1317 345.885 45.6034C345.138 45.1727 344.366 44.7872 343.572 44.4491C339.755 42.0197 336.169 40.7482 332.582 39.5921L332.578 39.5903Z" fill="#E0234E"/>
</g>
<defs>
<clipPath id="clip0_203_23">
<rect width="448" height="446" fill="white" transform="translate(32 33)"/>
</clipPath>
</defs>
</svg>
