<svg width="512" height="512" viewBox="0 0 512 512" fill="none" xmlns="http://www.w3.org/2000/svg">
<g clip-path="url(#clip0_45_123)">
<path d="M137.709 191.872H222.206V198.529H145.454V248.631H217.63V255.288H145.454V310.296H223.086V316.952H137.709V191.872ZM229.776 191.872H238.754L278.537 246.879L319.201 191.871L374.511 122L283.642 252.661L330.468 316.952H321.138L278.537 258.441L235.76 316.952H226.607L273.784 252.66L229.775 191.872H229.776ZM333.812 198.529V191.871H430.104V198.528H385.742V316.951H377.997V198.529H333.812ZM32 191.871H41.6819L175.189 389.899L120.018 316.951L40.0972 201.331L39.7455 316.953H32V191.871ZM429.324 308.285C427.741 308.285 426.554 307.071 426.554 305.499C426.554 303.93 427.741 302.714 429.324 302.714C430.925 302.714 432.093 303.929 432.093 305.499C432.093 307.07 430.925 308.285 429.324 308.285ZM436.934 300.956H441.079C441.135 303.181 442.774 304.677 445.186 304.677C447.88 304.677 449.406 303.069 449.406 300.059V280.986H453.626V300.077C453.626 305.499 450.461 308.623 445.223 308.623C440.306 308.623 436.934 305.593 436.934 300.955V300.956ZM459.145 300.714H463.328C463.686 303.275 466.21 304.901 469.846 304.901C473.237 304.901 475.724 303.162 475.724 300.769C475.724 298.713 474.141 297.478 470.543 296.637L467.039 295.796C462.121 294.654 459.88 292.299 459.88 288.335C459.88 283.53 463.836 280.332 469.77 280.332C475.29 280.332 479.322 283.529 479.567 288.073H475.46C475.064 285.587 472.878 284.034 469.714 284.034C466.38 284.034 464.157 285.624 464.157 288.054C464.157 289.98 465.588 291.084 469.13 291.906L472.125 292.635C477.701 293.926 480 296.17 480 300.227C480 305.387 475.969 308.623 469.526 308.623C463.497 308.623 459.446 305.537 459.145 300.713V300.714Z" fill="black"/>
</g>
<defs>
<clipPath id="clip0_45_123">
<rect width="448" height="268" fill="white" transform="translate(32 122)"/>
</clipPath>
</defs>
</svg>
