<svg width="512" height="512" viewBox="0 0 512 512" fill="none" xmlns="http://www.w3.org/2000/svg">
<g clip-path="url(#clip0_60_2)">
<path d="M253.471 392.707C251.955 392.707 250.539 392.302 249.224 391.593L235.774 383.597C233.751 382.483 234.763 382.079 235.37 381.876C238.1 380.966 238.606 380.762 241.437 379.144C241.741 378.941 242.146 379.042 242.449 379.245L252.764 385.419C253.168 385.621 253.674 385.621 253.977 385.419L294.328 362.037C294.732 361.835 294.935 361.429 294.935 360.924V314.261C294.935 313.754 294.732 313.351 294.328 313.147L253.977 289.867C253.573 289.664 253.067 289.664 252.764 289.867L212.414 313.147C212.009 313.35 211.806 313.856 211.806 314.261V360.923C211.806 361.329 212.009 361.834 212.414 362.037L223.437 368.414C229.403 371.45 233.145 367.907 233.145 364.365V318.309C233.145 317.702 233.651 317.095 234.359 317.095H239.516C240.123 317.095 240.729 317.601 240.729 318.309V364.365C240.729 372.361 236.381 377.018 228.796 377.018C226.47 377.018 224.65 377.018 219.492 374.486L208.874 368.414C206.245 366.896 204.627 364.061 204.627 361.025V314.362C204.627 311.326 206.245 308.491 208.874 306.973L249.224 283.591C251.753 282.174 255.191 282.174 257.719 283.591L298.069 306.973C300.698 308.491 302.317 311.326 302.317 314.362V361.025C302.317 364.061 300.698 366.896 298.069 368.414L257.719 391.796C256.404 392.403 254.888 392.707 253.472 392.707H253.471ZM265.91 360.62C248.213 360.62 244.572 352.522 244.572 345.639C244.572 345.032 245.078 344.425 245.786 344.425H251.045C251.651 344.425 252.157 344.829 252.157 345.437C252.966 350.801 255.292 353.433 266.012 353.433C274.506 353.433 278.148 351.51 278.148 346.955C278.148 344.323 277.136 342.401 263.888 341.084C252.865 339.97 245.988 337.542 245.988 328.736C245.988 320.537 252.866 315.678 264.394 315.678C277.338 315.678 283.709 320.132 284.519 329.848C284.519 330.153 284.417 330.456 284.215 330.76C284.012 330.962 283.709 331.164 283.406 331.164H278.147C277.641 331.164 277.136 330.76 277.035 330.253C275.821 324.687 272.686 322.864 264.394 322.864C255.09 322.864 253.977 326.104 253.977 328.533C253.977 331.468 255.292 332.379 267.832 333.998C280.271 335.619 286.137 337.946 286.137 346.651C286.035 355.559 278.754 360.62 265.91 360.62Z" fill="#539E43"/>
<path d="M128.275 210.206C128.275 208.385 127.263 206.663 125.645 205.752L82.7666 181.055C82.0579 180.649 81.2494 180.447 80.4409 180.345H80.0358C79.2273 180.345 78.4179 180.649 77.71 181.055L34.8315 205.752C33.2128 206.663 32.2021 208.384 32.2021 210.206L32.3036 276.607C32.3036 277.517 32.8094 278.428 33.6179 278.834C34.4273 279.34 35.4379 279.34 36.1466 278.834L61.631 264.258C63.2489 263.347 64.2604 261.626 64.2604 259.804V228.729C64.2604 226.908 65.271 225.187 66.8898 224.276L77.71 218C78.5194 217.494 79.4294 217.291 80.3394 217.291C81.2494 217.291 82.1594 217.494 82.8681 218L93.6884 224.276C95.3071 225.187 96.3178 226.907 96.3178 228.729V259.804C96.3178 261.626 97.3293 263.347 98.9471 264.258L124.432 278.834C124.825 279.082 125.281 279.214 125.746 279.214C126.211 279.214 126.667 279.082 127.061 278.834C127.87 278.428 128.376 277.517 128.376 276.607L128.275 210.206ZM334.375 118.804C333.566 118.398 332.555 118.398 331.846 118.804C331.037 119.31 330.532 120.119 330.532 121.03V186.824C330.532 187.431 330.229 188.038 329.622 188.444C329.015 188.747 328.408 188.747 327.802 188.444L317.082 182.269C316.296 181.821 315.407 181.586 314.503 181.586C313.599 181.586 312.71 181.821 311.924 182.269L269.045 207.068C267.428 207.979 266.416 209.7 266.416 211.522V261.018C266.416 262.84 267.428 264.562 269.045 265.473L311.924 290.272C312.71 290.72 313.599 290.955 314.503 290.955C315.407 290.955 316.296 290.72 317.082 290.272L359.961 265.473C361.578 264.562 362.59 262.841 362.59 261.018V137.631C362.59 135.708 361.578 133.988 359.961 133.076L334.376 118.804H334.375ZM330.431 244.722C330.431 245.229 330.229 245.633 329.824 245.836L315.161 254.338C314.956 254.438 314.731 254.49 314.503 254.49C314.275 254.49 314.05 254.438 313.845 254.338L299.182 245.836C298.777 245.633 298.575 245.127 298.575 244.722V227.717C298.575 227.211 298.777 226.806 299.182 226.604L313.845 218.101C314.05 218.001 314.275 217.949 314.503 217.949C314.731 217.949 314.956 218.001 315.161 218.101L329.824 226.604C330.229 226.805 330.431 227.312 330.431 227.717V244.722ZM477.067 227.312C478.686 226.402 479.596 224.681 479.596 222.858V210.813C479.596 208.992 478.584 207.271 477.067 206.36L434.492 181.662C433.706 181.215 432.817 180.979 431.913 180.979C431.009 180.979 430.12 181.215 429.334 181.662L386.456 206.461C384.837 207.371 383.826 209.092 383.826 210.914V260.411C383.826 262.233 384.838 263.954 386.456 264.865L429.03 289.158C430.649 290.068 432.571 290.068 434.088 289.158L459.875 274.786C460.684 274.38 461.19 273.47 461.19 272.559C461.19 271.648 460.684 270.737 459.875 270.332L416.794 245.532C415.985 245.026 415.479 244.217 415.479 243.306V227.82C415.479 226.909 415.985 225.998 416.794 225.592L430.244 217.899C430.638 217.651 431.093 217.52 431.559 217.52C432.024 217.52 432.48 217.651 432.873 217.899L446.324 225.592C447.133 226.099 447.638 226.908 447.638 227.82V239.966C447.638 240.877 448.144 241.788 448.953 242.192C449.347 242.44 449.803 242.572 450.268 242.572C450.733 242.572 451.189 242.44 451.583 242.192L477.067 227.312Z" fill="#333333"/>
<path d="M431.256 224.984C431.406 224.885 431.582 224.832 431.761 224.832C431.941 224.832 432.117 224.885 432.267 224.984L440.459 229.741C440.762 229.944 440.964 230.247 440.964 230.652V240.167C440.964 240.572 440.763 240.876 440.459 241.078L432.267 245.836C432.117 245.935 431.941 245.987 431.761 245.987C431.582 245.987 431.406 245.935 431.256 245.836L423.065 241.078C422.761 240.876 422.559 240.572 422.559 240.167V230.653C422.559 230.247 422.76 229.943 423.065 229.742L431.256 224.984Z" fill="#539E43"/>
<path d="M242.651 206.461L199.874 181.865C199.454 181.652 199.013 181.483 198.559 181.359L150.624 263.55C151.021 264.035 151.501 264.447 152.041 264.765L194.818 289.362C196.031 290.07 197.447 290.272 198.761 289.867L243.764 207.474C243.461 207.069 243.056 206.764 242.651 206.461V206.461Z" fill="url(#paint0_linear_60_2)"/>
<path fill-rule="evenodd" clip-rule="evenodd" d="M193.402 172.855L192.795 173.159H193.604L193.402 172.855Z" fill="url(#paint1_linear_60_2)"/>
<path fill-rule="evenodd" clip-rule="evenodd" d="M242.753 264.662C243.966 263.954 244.876 262.739 245.281 261.424L198.356 181.257C197.142 181.055 195.827 181.155 194.716 181.864L152.242 206.36L198.052 289.968C198.719 289.859 199.366 289.654 199.974 289.361L242.752 264.663L242.753 264.662Z" fill="url(#paint2_linear_60_2)"/>
<path fill-rule="evenodd" clip-rule="evenodd" d="M246.697 263.853L246.394 263.347V264.056L246.696 263.853H246.697Z" fill="url(#paint3_linear_60_2)"/>
<path fill-rule="evenodd" clip-rule="evenodd" d="M242.753 264.662L200.076 289.259C199.474 289.567 198.824 289.772 198.155 289.866L198.964 291.385L246.292 263.955V263.347L245.078 261.322C244.876 262.739 243.966 263.954 242.753 264.662Z" fill="url(#paint4_linear_60_2)"/>
<path fill-rule="evenodd" clip-rule="evenodd" d="M242.753 264.662L200.076 289.259C199.474 289.567 198.824 289.772 198.155 289.866L198.964 291.385L246.292 263.955V263.347L245.078 261.322C244.876 262.739 243.966 263.954 242.753 264.662Z" fill="url(#paint5_linear_60_2)"/>
</g>
<defs>
<linearGradient id="paint0_linear_60_2" x1="190.932" y1="241.336" x2="307.854" y2="177.869" gradientUnits="userSpaceOnUse">
<stop offset="0.1376" stop-color="#41873F"/>
<stop offset="0.4032" stop-color="#54A044"/>
<stop offset="0.7136" stop-color="#66B848"/>
<stop offset="0.9081" stop-color="#6CC04A"/>
</linearGradient>
<linearGradient id="paint1_linear_60_2" x1="157.11" y1="172.896" x2="235.872" y2="172.896" gradientUnits="userSpaceOnUse">
<stop offset="0.09192" stop-color="#6CC04A"/>
<stop offset="0.2864" stop-color="#66B848"/>
<stop offset="0.5968" stop-color="#54A044"/>
<stop offset="0.8624" stop-color="#41873F"/>
</linearGradient>
<linearGradient id="paint2_linear_60_2" x1="148.158" y1="235.563" x2="246.676" y2="235.563" gradientUnits="userSpaceOnUse">
<stop offset="0.09192" stop-color="#6CC04A"/>
<stop offset="0.2864" stop-color="#66B848"/>
<stop offset="0.5968" stop-color="#54A044"/>
<stop offset="0.8624" stop-color="#41873F"/>
</linearGradient>
<linearGradient id="paint3_linear_60_2" x1="216.901" y1="263.604" x2="246.478" y2="263.604" gradientUnits="userSpaceOnUse">
<stop offset="0.09192" stop-color="#6CC04A"/>
<stop offset="0.2864" stop-color="#66B848"/>
<stop offset="0.5968" stop-color="#54A044"/>
<stop offset="0.8624" stop-color="#41873F"/>
</linearGradient>
<linearGradient id="paint4_linear_60_2" x1="148.159" y1="276.436" x2="246.676" y2="276.436" gradientUnits="userSpaceOnUse">
<stop offset="0.09192" stop-color="#6CC04A"/>
<stop offset="0.2864" stop-color="#66B848"/>
<stop offset="0.5968" stop-color="#54A044"/>
<stop offset="0.8624" stop-color="#41873F"/>
</linearGradient>
<linearGradient id="paint5_linear_60_2" x1="261.028" y1="197.869" x2="236.026" y2="328.76" gradientUnits="userSpaceOnUse">
<stop stop-color="#41873F"/>
<stop offset="0.3288" stop-color="#418B3D"/>
<stop offset="0.6352" stop-color="#419637"/>
<stop offset="0.9319" stop-color="#3FA92D"/>
<stop offset="1" stop-color="#3FAE2A"/>
</linearGradient>
<clipPath id="clip0_60_2">
<rect width="448" height="275" fill="white" transform="translate(32 118.5)"/>
</clipPath>
</defs>
</svg>
