<svg width="512" height="512" viewBox="0 0 512 512" fill="none" xmlns="http://www.w3.org/2000/svg">
<path d="M403.959 282.844H107.586V266.123C107.586 254.888 116.69 245.781 127.919 245.781H383.625C394.855 245.781 403.959 254.888 403.959 266.123V282.844Z" fill="#DFDEDF"/>
<path d="M383.312 476.752H128.231C116.828 476.752 107.584 467.504 107.584 456.097V282.844H403.957V456.096C403.957 467.503 394.714 476.751 383.31 476.751" fill="white"/>
<path d="M400.278 279.483V264.488C400.278 255.635 393.106 248.459 384.257 248.459H127.743C118.894 248.459 111.722 255.634 111.722 264.488V279.483H400.278ZM400.278 458.24V286.207H111.722V458.239C111.722 467.092 118.894 474.268 127.743 474.268H384.257C393.106 474.268 400.278 467.092 400.278 458.24ZM129.247 241.735L130.245 230.836L126.008 241.823C126.582 241.779 127.157 241.735 127.743 241.735H129.247ZM380.994 223.36L382.473 241.735H384.257C385.211 241.735 386.145 241.813 387.069 241.928L380.994 223.36ZM401.34 249.517C404.852 253.523 407 258.753 407 264.488V458.24C407 470.785 396.797 480.992 384.257 480.992H127.743C115.203 480.992 105 470.786 105 458.239V264.489C105 258.409 107.41 252.891 111.308 248.805L133.981 190.013L143.868 81.9647L155.023 82.9855L146.114 180.339L149.252 181.55L144.994 192.594L140.497 241.735H371.235L358.431 82.7164L369.596 81.8159L377.148 175.602L377.153 175.601L401.34 249.517ZM129.957 259.419C130.63 259.409 131.299 259.532 131.923 259.783C132.548 260.033 133.116 260.406 133.596 260.878C134.075 261.35 134.456 261.914 134.716 262.535C134.976 263.156 135.11 263.822 135.11 264.495C135.11 265.169 134.976 265.835 134.716 266.456C134.456 267.077 134.075 267.64 133.596 268.113C133.116 268.585 132.548 268.957 131.923 269.208C131.299 269.458 130.63 269.582 129.957 269.572C128.625 269.551 127.354 269.008 126.419 268.058C125.484 267.108 124.96 265.828 124.96 264.495C124.96 263.162 125.484 261.883 126.419 260.933C127.354 259.983 128.625 259.439 129.957 259.419ZM147.309 259.419C147.982 259.409 148.651 259.532 149.275 259.783C149.9 260.033 150.469 260.406 150.948 260.878C151.427 261.35 151.808 261.914 152.068 262.535C152.328 263.156 152.462 263.822 152.462 264.495C152.462 265.169 152.328 265.835 152.068 266.456C151.808 267.077 151.427 267.64 150.948 268.113C150.469 268.585 149.9 268.957 149.275 269.208C148.651 269.458 147.982 269.582 147.309 269.572C145.977 269.551 144.706 269.008 143.771 268.058C142.836 267.108 142.312 265.828 142.312 264.495C142.312 263.162 142.836 261.883 143.771 260.933C144.706 259.983 145.977 259.439 147.309 259.419ZM164.113 259.419C164.786 259.409 165.454 259.532 166.079 259.783C166.703 260.033 167.272 260.406 167.751 260.878C168.231 261.35 168.612 261.914 168.872 262.535C169.132 263.156 169.265 263.822 169.265 264.495C169.265 265.169 169.132 265.835 168.872 266.456C168.612 267.077 168.231 267.64 167.751 268.113C167.272 268.585 166.703 268.957 166.079 269.208C165.454 269.458 164.786 269.582 164.113 269.572C162.781 269.551 161.51 269.008 160.575 268.058C159.639 267.108 159.115 265.828 159.115 264.495C159.115 263.162 159.639 261.883 160.575 260.933C161.51 259.983 162.781 259.439 164.113 259.419Z" fill="black"/>
<path d="M147.495 369.588C148.366 368.579 148.825 367.252 148.825 365.606C148.825 363.958 148.365 362.685 147.495 361.676C146.577 360.667 145.291 360.189 143.639 360.189H135.562V371.074H143.639C145.291 371.074 146.577 370.596 147.495 369.588ZM143.639 353.659C147.127 353.659 149.88 354.721 151.944 356.897C154.011 359.074 155.021 361.993 155.021 365.607C155.021 369.268 154.011 372.136 151.993 374.312C149.927 376.49 147.174 377.605 143.639 377.605H135.562V392.255H129.32V353.659H143.639ZM177.312 377.33V366.071H184.034V391.491H177.312V389.2C175.275 391.237 172.629 392.255 169.318 392.255C166.262 392.255 163.818 391.237 161.934 389.25C160.05 387.264 159.133 384.716 159.133 381.558V366.071H165.855V380.131C165.855 381.913 166.313 383.392 167.28 384.462C168.197 385.532 169.419 386.091 170.997 386.091C175.224 386.091 177.312 383.188 177.312 377.33ZM210.256 384.309C211.58 382.933 212.242 381.099 212.242 378.807C212.242 376.515 211.581 374.629 210.256 373.254C208.881 371.878 207.201 371.166 205.113 371.166C203.229 371.166 201.55 371.878 200.072 373.305C198.595 374.732 197.883 376.565 197.883 378.807C197.883 381.048 198.595 382.883 200.072 384.257C201.549 385.685 203.229 386.398 205.113 386.398C207.201 386.398 208.881 385.685 210.256 384.309ZM206.284 365.307C209.595 365.307 212.548 366.582 215.043 369.129C217.539 371.725 218.76 374.935 218.76 378.806C218.76 382.677 217.539 385.887 215.043 388.435C212.547 390.983 209.645 392.255 206.284 392.255C202.974 392.255 200.174 391.338 197.883 389.505V403.619H191.161V366.071H197.883V368.109C200.124 366.224 202.923 365.307 206.284 365.307ZM242.947 384.308C244.27 382.933 244.932 381.098 244.932 378.807C244.932 376.515 244.27 374.629 242.947 373.254C241.571 371.878 239.891 371.166 237.803 371.166C235.919 371.166 234.239 371.878 232.762 373.305C231.285 374.732 230.572 376.565 230.572 378.807C230.572 381.048 231.285 382.883 232.762 384.257C234.239 385.685 235.919 386.398 237.803 386.398C239.891 386.398 241.571 385.684 242.947 384.308ZM238.973 365.307C242.284 365.307 245.238 366.582 247.734 369.129C250.228 371.725 251.45 374.935 251.45 378.806C251.45 382.677 250.228 385.887 247.734 388.435C245.238 390.983 242.336 392.255 238.973 392.255C235.664 392.255 232.863 391.338 230.572 389.505V403.619H223.851V366.071H230.572V368.109C232.813 366.224 235.614 365.307 238.973 365.307ZM261.377 375.852H273.649C273.242 374.273 272.478 373.102 271.409 372.335C270.339 371.573 269.067 371.166 267.64 371.166C266.255 371.164 264.903 371.591 263.77 372.388C262.548 373.203 261.733 374.374 261.377 375.852ZM267.641 365.307C271.103 365.307 274.108 366.53 276.603 368.924C279.098 371.37 280.371 374.476 280.524 378.297V380.59H261.174C261.53 382.372 262.295 383.798 263.466 384.87C264.636 385.939 265.96 386.498 267.538 386.498C270.442 386.498 272.53 385.377 273.853 383.137L279.863 384.41C278.793 387.009 277.163 388.946 275.026 390.27C272.886 391.594 270.391 392.255 267.538 392.255C263.872 392.255 260.767 390.983 258.271 388.487C255.776 385.991 254.502 382.73 254.502 378.807C254.502 374.885 255.776 371.625 258.322 369.077C260.817 366.582 263.925 365.307 267.641 365.307ZM299.058 385.991C300.331 385.991 301.758 385.582 303.285 384.768L305.22 390.371C302.877 391.645 300.688 392.256 298.6 392.256C295.493 392.256 293.049 391.39 291.267 389.707C289.485 388.029 288.619 385.532 288.619 382.119V371.573H283.169V366.071H288.619V358.38H295.341V366.071H303.642V371.573H295.341V381.609C295.341 384.512 296.563 385.991 299.057 385.991H299.058ZM313.16 375.852H325.433C325.026 374.273 324.261 373.102 323.193 372.335C322.123 371.573 320.851 371.166 319.423 371.166C318.038 371.164 316.687 371.591 315.554 372.388C314.332 373.203 313.517 374.374 313.16 375.852ZM319.425 365.307C322.887 365.307 325.892 366.53 328.387 368.924C330.882 371.37 332.155 374.476 332.308 378.297V380.59H312.958C313.314 382.372 314.078 383.798 315.25 384.87C316.42 385.939 317.744 386.498 319.322 386.498C322.225 386.498 324.313 385.377 325.637 383.137L331.645 384.41C330.576 387.009 328.947 388.946 326.808 390.27C324.669 391.594 322.174 392.255 319.322 392.255C315.655 392.255 312.551 390.983 310.054 388.487C307.559 385.991 306.285 382.73 306.285 378.807C306.285 374.885 307.559 371.625 310.105 369.077C312.6 366.582 315.709 365.307 319.425 365.307ZM343.355 375.852H355.627C355.22 374.273 354.455 373.102 353.388 372.335C352.318 371.573 351.045 371.166 349.618 371.166C348.232 371.164 346.881 371.591 345.748 372.388C344.526 373.203 343.711 374.374 343.355 375.852ZM349.619 365.307C353.081 365.307 356.086 366.53 358.581 368.924C361.076 371.37 362.35 374.476 362.503 378.297V380.59H343.152C343.508 382.372 344.272 383.798 345.445 384.87C346.615 385.939 347.939 386.498 349.517 386.498C352.419 386.498 354.507 385.377 355.831 383.137L361.841 384.41C360.771 387.009 359.142 388.946 357.004 390.27C354.864 391.594 352.369 392.255 349.517 392.255C345.851 392.255 342.743 390.983 340.25 388.487C337.755 385.991 336.479 382.73 336.479 378.807C336.479 374.885 337.753 371.625 340.299 369.077C342.794 366.582 345.903 365.307 349.619 365.307ZM383.429 365.714C384.194 365.714 384.805 365.765 385.213 365.917L384.856 372.388H383.38C377.32 372.388 374.314 376.005 374.314 383.291V391.491H367.594V366.071H374.314V370.707C376.606 367.395 379.662 365.714 383.43 365.714H383.429Z" fill="black"/>
<path d="M354.027 186.534L390.291 169.019V151.505L306.506 111.472L390.291 68.3126V51.4246L355.277 35.1608L256.07 84.5752L155.195 35.1608L122.682 52.6755V67.6871L201.464 110.847L122.682 150.88V169.019L156.445 186.534L256.487 135.242L354.027 186.534Z" fill="#00D8A2"/>
<path d="M358.574 179.39V171.847L385.872 157.695V166.169L358.574 179.39ZM124.878 157.497L151.256 172.646V178.676L124.878 165.326V157.497ZM259.991 125.64L350.732 170.492V179.51L259.991 133.006V125.64ZM159.097 171.804L252.151 125.648V133.004L159.097 180.102V171.804ZM224.985 96.3862L130.82 50.9053L155.209 38.5054L256.071 90.8135L355.244 38.5278L380.494 51.4659L288.667 97.6973C284.994 99.5454 285 104.79 288.675 106.631L379.556 152.134L356 164.345L256.071 113.123L154.375 165.391L131.148 152.052L225.039 105.362C228.757 103.513 228.726 98.193 224.985 96.3862ZM126.05 66.3134V58.0358L213.873 101.87L204.995 105.419L126.05 66.3134ZM306.134 105.905C306.014 105.832 297.723 101.919 297.723 101.919L385.871 57.5389V65.8531L306.137 105.906L306.134 105.905ZM314.958 110.252L392.433 71.335C392.818 71.1415 393.142 70.8448 393.368 70.478C393.594 70.1112 393.713 69.6888 393.713 69.2579V50.8475C393.713 50.42 393.595 50.0009 393.373 49.6361C393.15 49.2714 392.831 48.9751 392.451 48.7798L356.311 30.262C355.985 30.095 355.624 30.0076 355.257 30.007C354.89 30.0064 354.529 30.0926 354.202 30.2584L257.11 79.5465C256.787 79.7108 256.43 79.797 256.067 79.7983C255.705 79.7995 255.347 79.7157 255.023 79.5536L156.222 30.2443C155.897 30.0826 155.54 29.9992 155.177 30.0006C154.814 30.002 154.457 30.0883 154.134 30.2525L118.307 48.4671C117.924 48.6612 117.603 48.9575 117.379 49.3231C117.154 49.6886 117.035 50.1092 117.035 50.5383V69.2496C117.035 70.1336 117.537 70.9408 118.329 71.3326L196.131 109.787L118.689 148.254C118.308 148.443 117.987 148.733 117.76 149.093C117.533 149.452 117.409 149.867 117.401 150.292L117.062 168.691C117.054 169.128 117.17 169.558 117.395 169.932C117.62 170.306 117.947 170.61 118.336 170.807L155.539 189.637C155.863 189.801 156.221 189.887 156.584 189.887C156.947 189.887 157.305 189.803 157.629 189.64L255.022 140.716C255.347 140.553 255.706 140.468 256.07 140.469C256.433 140.47 256.792 140.556 257.116 140.721L353.296 189.643C353.615 189.805 353.967 189.891 354.325 189.895C354.682 189.898 355.036 189.819 355.358 189.663L392.403 171.721C392.795 171.531 393.126 171.234 393.358 170.865C393.59 170.495 393.713 170.068 393.713 169.631V150.407C393.713 149.973 393.591 149.547 393.362 149.179C393.133 148.81 392.805 148.513 392.416 148.321L314.957 110.253L314.958 110.252Z" fill="black"/>
</svg>
