<svg width="512" height="512" viewBox="0 0 512 512" fill="none" xmlns="http://www.w3.org/2000/svg">
<path d="M254.103 32.1265C140.647 32.1265 147.731 81.5207 147.731 81.5207L147.857 132.695H256.126V148.058H104.854C104.854 148.058 32.2537 139.792 32.2537 254.717C32.2537 369.646 95.6212 365.57 95.6212 365.57H133.439V312.239C133.439 312.239 131.4 248.623 195.795 248.623H303.178C303.178 248.623 363.509 249.602 363.509 190.086V91.6806C363.509 91.6806 372.672 32.1265 254.103 32.1265ZM194.403 66.5399C196.962 66.5376 199.496 67.0418 201.86 68.0237C204.224 69.0055 206.372 70.4458 208.181 72.262C209.99 74.0782 211.425 76.2347 212.403 78.6081C213.381 80.9816 213.883 83.5253 213.881 86.0938C213.883 88.6623 213.381 91.2061 212.403 93.5795C211.425 95.9529 209.99 98.1094 208.181 99.9256C206.372 101.742 204.224 103.182 201.86 104.164C199.496 105.146 196.962 105.65 194.403 105.648C191.845 105.65 189.311 105.146 186.947 104.164C184.583 103.182 182.435 101.742 180.626 99.9256C178.816 98.1094 177.382 95.9529 176.404 93.5795C175.426 91.2061 174.924 88.6623 174.926 86.0938C174.924 83.5253 175.426 80.9816 176.404 78.6081C177.382 76.2347 178.816 74.0782 180.626 72.262C182.435 70.4458 184.583 69.0055 186.947 68.0237C189.311 67.0418 191.845 66.5376 194.403 66.5399Z" fill="url(#paint0_linear_102_2)"/>
<path d="M257.325 478.465C370.781 478.465 363.697 429.07 363.697 429.07L363.571 377.898H255.3V362.534H406.572C406.572 362.534 479.172 370.8 479.172 255.872C479.172 140.945 415.805 145.021 415.805 145.021H377.987V198.35C377.987 198.35 380.026 261.966 315.631 261.966H208.248C208.248 261.966 147.917 260.988 147.917 320.505V418.912C147.917 418.912 138.755 478.465 257.323 478.465H257.325ZM317.024 444.055C314.466 444.057 311.932 443.553 309.568 442.571C307.204 441.589 305.056 440.149 303.247 438.333C301.437 436.516 300.003 434.36 299.025 431.986C298.047 429.613 297.545 427.069 297.547 424.501C297.544 421.932 298.046 419.388 299.024 417.014C300.002 414.641 301.437 412.484 303.246 410.668C305.055 408.851 307.203 407.411 309.567 406.429C311.932 405.447 314.466 404.943 317.024 404.945C319.583 404.943 322.117 405.447 324.481 406.429C326.845 407.411 328.993 408.851 330.802 410.667C332.611 412.483 334.046 414.64 335.024 417.013C336.002 419.387 336.504 421.93 336.502 424.499C336.504 427.067 336.002 429.611 335.024 431.985C334.046 434.358 332.611 436.515 330.802 438.331C328.993 440.147 326.845 441.587 324.481 442.569C322.117 443.551 319.583 444.055 317.024 444.053V444.055Z" fill="url(#paint1_linear_102_2)"/>
<defs>
<linearGradient id="paint0_linear_102_2" x1="75.2024" y1="72.2719" x2="297.54" y2="291.531" gradientUnits="userSpaceOnUse">
<stop stop-color="#387EB8"/>
<stop offset="1" stop-color="#366994"/>
</linearGradient>
<linearGradient id="paint1_linear_102_2" x1="211.146" y1="213.626" x2="449.868" y2="438.416" gradientUnits="userSpaceOnUse">
<stop stop-color="#FFE052"/>
<stop offset="1" stop-color="#FFC331"/>
</linearGradient>
</defs>
</svg>
