<svg width="512" height="512" viewBox="0 0 512 512" fill="none" xmlns="http://www.w3.org/2000/svg">
<g clip-path="url(#clip0_45_119)">
<path d="M400.345 184.811C395.578 183.155 390.769 181.62 385.925 180.209C386.739 176.843 387.488 173.517 388.153 170.249C399.07 116.593 391.933 73.3672 367.557 59.1351C344.186 45.4912 305.964 59.718 267.363 93.7338C263.558 97.0922 259.838 100.547 256.206 104.096C253.775 101.736 251.301 99.4223 248.785 97.1554C208.328 60.7847 167.777 45.4558 143.428 59.7287C120.077 73.4151 113.163 114.051 122.991 164.902C123.969 169.938 125.073 174.948 126.302 179.928C120.562 181.579 115.023 183.337 109.723 185.208C62.2907 201.953 32 228.193 32 255.412C32 283.523 64.5185 311.72 113.921 328.818C117.926 330.198 121.965 331.477 126.033 332.654C124.712 338.017 123.539 343.416 122.515 348.846C113.146 398.814 120.462 438.489 143.75 452.089C167.802 466.133 208.171 451.699 247.477 416.907C250.665 414.079 253.782 411.17 256.826 408.184C260.759 412.027 264.797 415.757 268.936 419.372C307.012 452.546 344.617 465.942 367.881 452.305C391.91 438.22 399.72 395.598 389.581 343.742C388.782 339.68 387.887 335.638 386.895 331.619C389.73 330.768 392.512 329.893 395.225 328.982C446.584 311.754 480 283.899 480 255.412C480 228.094 448.731 201.676 400.345 184.811ZM389.206 310.59C386.757 311.41 384.243 312.202 381.681 312.973C376.011 294.798 368.361 275.474 358.996 255.506C367.932 236.014 375.289 216.936 380.799 198.88C385.383 200.223 389.829 201.639 394.117 203.133C435.574 217.585 460.862 238.949 460.862 255.412C460.862 272.947 433.551 295.711 389.206 310.59ZM370.807 347.506C375.29 370.435 375.929 391.166 372.96 407.374C370.293 421.938 364.927 431.646 358.291 435.536C344.174 443.81 313.981 433.055 281.419 404.683C277.569 401.322 273.813 397.854 270.154 394.281C282.779 380.303 295.394 364.052 307.707 346.003C329.365 344.058 349.826 340.875 368.382 336.533C369.275 340.17 370.084 343.829 370.807 347.506ZM184.733 434.106C170.939 439.037 159.953 439.179 153.312 435.302C139.18 427.05 133.306 395.192 141.319 352.46C142.272 347.411 143.362 342.389 144.59 337.401C162.94 341.512 183.253 344.467 204.961 346.25C217.358 363.911 230.338 380.143 243.419 394.358C240.639 397.081 237.794 399.735 234.884 402.317C217.502 417.701 200.084 428.616 184.733 434.106ZM120.112 310.482C98.2673 302.921 80.2265 293.095 67.861 282.373C56.7485 272.739 51.1398 263.173 51.1398 255.412C51.1398 238.894 75.4595 217.826 116.023 203.507C120.946 201.77 126.098 200.131 131.444 198.593C137.051 217.057 144.404 236.362 153.279 255.883C144.289 275.693 136.83 295.307 131.169 313.988C127.456 312.911 123.769 311.742 120.112 310.482ZM141.774 161.179C133.355 117.612 138.946 84.7483 153.018 76.5C168.005 67.7148 201.146 80.2405 236.078 111.646C238.356 113.699 240.597 115.793 242.8 117.928C229.783 132.08 216.923 148.192 204.636 165.749C183.566 167.726 163.397 170.901 144.854 175.156C143.712 170.524 142.685 165.864 141.774 161.181V161.179ZM335.021 209.496C330.641 201.836 326.099 194.272 321.397 186.81C335.691 188.64 349.387 191.069 362.248 194.039C358.387 206.57 353.575 219.67 347.91 233.101C343.769 225.147 339.472 217.277 335.021 209.496ZM256.215 131.777C265.042 141.461 273.883 152.271 282.579 164.001C264.939 163.158 247.27 163.154 229.629 163.991C238.334 152.369 247.25 141.572 256.215 131.777ZM176.904 209.629C172.508 217.347 168.291 225.168 164.256 233.085C158.684 219.702 153.916 206.542 150.022 193.834C162.804 190.938 176.435 188.571 190.637 186.774C185.883 194.282 181.304 201.902 176.904 209.627V209.629ZM191.045 325.428C176.372 323.769 162.536 321.524 149.757 318.707C153.713 305.772 158.586 292.332 164.279 278.661C168.33 286.585 172.564 294.41 176.979 302.132C181.518 310.07 186.219 317.846 191.045 325.428ZM256.744 380.411C247.672 370.502 238.624 359.539 229.789 347.749C238.367 348.089 247.112 348.263 256 348.263C265.132 348.263 274.158 348.055 283.043 347.655C274.319 359.658 265.511 370.637 256.744 380.411ZM348.09 277.963C354.079 291.784 359.126 305.153 363.133 317.867C350.145 320.869 336.12 323.286 321.343 325.08C326.078 317.48 330.664 309.785 335.096 301.999C339.603 294.086 343.936 286.072 348.09 277.963ZM318.519 292.318C311.733 304.254 304.565 315.964 297.027 327.428C283.373 328.407 269.688 328.894 256 328.887C242.058 328.887 228.497 328.447 215.438 327.59C207.704 316.151 200.399 304.421 193.541 292.424H193.542C186.716 280.49 180.34 268.298 174.427 255.874C180.325 243.447 186.682 231.25 193.485 219.307L193.483 219.309C200.283 207.363 207.53 195.683 215.206 184.294C228.529 183.273 242.191 182.741 255.998 182.741H256C269.87 182.741 283.55 183.278 296.87 184.306C304.468 195.678 311.668 207.318 318.456 219.204C325.281 231.121 331.723 243.259 337.769 255.6C331.785 268.066 325.364 280.313 318.519 292.318ZM357.999 75.9223C373 84.6828 378.834 120.01 369.409 166.337C368.807 169.292 368.131 172.303 367.396 175.356C348.808 171.011 328.625 167.781 307.494 165.773C295.184 148.024 282.429 131.887 269.624 117.917C272.98 114.642 276.415 111.451 279.928 108.349C313.003 79.2057 343.915 67.6988 357.999 75.9223ZM256 214.905C278.094 214.905 296.005 233.041 296.005 255.412C296.005 277.782 278.094 295.918 256 295.918C233.906 295.918 215.995 277.782 215.995 255.412C215.995 233.041 233.906 214.905 256 214.905Z" fill="#00D8FF"/>
</g>
<defs>
<clipPath id="clip0_45_119">
<rect width="448" height="404" fill="white" transform="translate(32 54)"/>
</clipPath>
</defs>
</svg>
