<svg width="512" height="512" viewBox="0 0 512 512" fill="none" xmlns="http://www.w3.org/2000/svg">
<path d="M462.448 359.15C438.539 371.612 314.688 422.535 288.321 436.282C261.953 450.03 247.306 449.897 226.476 439.939C205.647 429.982 73.8478 376.743 50.1055 365.394C38.2405 359.724 32 354.936 32 350.414V305.131C32 305.131 203.587 267.778 231.288 257.839C258.987 247.901 268.598 247.542 292.171 256.177C315.747 264.815 456.702 290.246 480 298.779L479.99 343.421C479.993 347.898 474.617 352.808 462.448 359.15Z" fill="#912626"/>
<path d="M462.439 314.135C438.532 326.591 314.685 377.516 288.317 391.261C261.952 405.011 247.304 404.876 226.476 394.918C205.646 384.968 73.8513 331.721 50.1108 320.379C26.3703 309.03 25.8733 301.22 49.1938 292.088C72.5143 282.953 203.586 231.53 231.29 221.591C258.989 211.657 268.598 211.294 292.171 219.932C315.745 228.567 438.854 277.569 462.148 286.1C485.451 294.642 486.346 301.675 462.439 314.135Z" fill="#C6302B"/>
<path d="M462.448 285.88C438.539 298.343 314.688 349.264 288.321 363.016C261.953 376.759 247.306 376.626 226.476 366.668C205.645 356.716 73.8478 303.472 50.1055 292.124C38.2405 286.454 32 281.673 32 277.149V231.861C32 231.861 203.587 194.509 231.288 184.57C258.987 174.632 268.598 174.272 292.171 182.908C315.749 191.544 456.704 216.97 480 225.505L479.99 270.152C479.993 274.627 474.617 279.538 462.448 285.88Z" fill="#912626"/>
<path d="M462.439 240.864C438.532 253.324 314.685 304.246 288.317 317.995C261.952 331.74 247.304 331.605 226.476 321.648C205.646 311.697 73.8513 258.452 50.1108 247.108C26.3703 235.763 25.8733 227.951 49.1938 218.816C72.5143 209.686 203.588 158.259 231.29 148.323C258.989 138.386 268.598 138.026 292.171 146.662C315.745 155.296 438.854 204.295 462.148 212.829C485.451 221.369 486.346 228.404 462.439 240.864Z" fill="#C6302B"/>
<path d="M462.448 209.893C438.539 222.353 314.688 273.278 288.321 287.029C261.953 300.774 247.306 300.639 226.476 290.681C205.645 280.729 73.8478 227.484 50.1055 216.14C38.2405 210.465 32 205.682 32 201.164V155.874C32 155.874 203.587 118.523 231.288 108.587C258.987 98.647 268.598 98.29 292.171 106.924C315.749 115.561 456.704 140.986 480 149.521L479.99 194.167C479.993 198.638 474.617 203.549 462.448 209.893Z" fill="#912626"/>
<path d="M462.439 164.877C438.532 177.337 314.685 228.262 288.317 242.007C261.952 255.751 247.304 255.617 226.476 245.664C205.647 235.707 73.8514 182.465 50.1127 171.12C26.3704 159.776 25.8752 151.962 49.1939 142.829C72.5144 133.698 203.588 82.2775 231.29 72.3375C258.989 62.3992 268.598 62.0422 292.171 70.6785C315.745 79.3147 438.854 128.313 462.148 136.848C485.451 145.381 486.346 152.417 462.439 164.877Z" fill="#C6302B"/>
<path d="M310.745 120.825L272.228 124.823L263.605 145.571L249.679 122.419L205.203 118.422L238.39 106.454L228.432 88.0822L259.503 100.234L288.795 90.6442L280.878 109.64L310.745 120.825ZM261.306 221.481L189.421 191.666L292.426 175.855L261.306 221.481ZM161.643 132.357C192.05 132.357 216.698 141.912 216.698 153.697C216.698 165.485 192.05 175.038 161.643 175.038C131.237 175.038 106.588 165.483 106.588 153.697C106.588 141.912 131.237 132.357 161.643 132.357Z" fill="white"/>
<path d="M356.266 126.497L417.229 150.587L356.319 174.655L356.266 126.495" fill="#621B1C"/>
<path d="M288.821 153.175L356.266 126.496L356.319 174.655L349.706 177.241L288.821 153.175Z" fill="#9A2928"/>
</svg>
