<svg width="512" height="512" viewBox="0 0 512 512" fill="none" xmlns="http://www.w3.org/2000/svg">
<g clip-path="url(#clip0_406_60)">
<path d="M241.984 84.8C241.984 82.1671 242.765 79.5934 244.228 77.4042C245.69 75.2151 247.769 73.5089 250.202 72.5013C252.634 71.4938 255.311 71.2301 257.893 71.7438C260.475 72.2574 262.847 73.5253 264.709 75.387C266.571 77.2487 267.839 79.6207 268.352 82.203C268.866 84.7852 268.602 87.4618 267.595 89.8943C266.587 92.3267 264.881 94.4058 262.692 95.8685C260.503 97.3313 257.929 98.112 255.296 98.112C253.547 98.1141 251.815 97.7712 250.199 97.103C248.583 96.4347 247.115 95.4543 245.878 94.2177C244.642 92.9811 243.661 91.5128 242.993 89.8968C242.325 88.2807 241.982 86.5487 241.984 84.8ZM83.2001 205.344C83.2001 202.711 83.9808 200.137 85.4436 197.948C86.9063 195.759 88.9854 194.053 91.4178 193.045C93.8503 192.038 96.5269 191.774 99.1091 192.288C101.691 192.801 104.063 194.069 105.925 195.931C107.787 197.793 109.055 200.165 109.568 202.747C110.082 205.329 109.818 208.006 108.811 210.438C107.803 212.871 106.097 214.95 103.908 216.413C101.719 217.875 99.1449 218.656 96.5121 218.656C94.7639 218.656 93.0329 218.312 91.4178 217.643C89.8027 216.974 88.3352 215.993 87.0991 214.757C85.8629 213.521 84.8824 212.053 84.2134 210.438C83.5444 208.823 83.2001 207.092 83.2001 205.344ZM400.896 205.968C400.896 203.335 401.677 200.761 403.14 198.572C404.602 196.383 406.681 194.677 409.114 193.669C411.546 192.662 414.223 192.398 416.805 192.912C419.387 193.425 421.759 194.693 423.621 196.555C425.483 198.417 426.751 200.789 427.264 203.371C427.778 205.953 427.514 208.63 426.507 211.062C425.499 213.495 423.793 215.574 421.604 217.037C419.415 218.499 416.841 219.28 414.208 219.28C412.459 219.282 410.727 218.939 409.111 218.271C407.495 217.603 406.027 216.622 404.79 215.386C403.554 214.149 402.573 212.681 401.905 211.065C401.237 209.449 400.894 207.717 400.896 205.968ZM121.68 224.208C124.615 222.898 126.912 220.48 128.069 217.482C129.227 214.484 129.15 211.15 127.856 208.208L121.952 194.848H145.184V299.568H98.3041C92.5177 279.246 90.714 257.998 92.9921 236.992L121.68 224.208ZM218.864 226.784V195.92H274.192C277.056 195.92 294.368 199.216 294.368 212.176C294.368 222.928 281.088 226.784 270.16 226.784H218.864ZM143.328 392.976C143.328 390.343 144.109 387.769 145.572 385.58C147.034 383.391 149.113 381.685 151.546 380.677C153.978 379.67 156.655 379.406 159.237 379.92C161.819 380.433 164.191 381.701 166.053 383.563C167.915 385.425 169.183 387.797 169.696 390.379C170.21 392.961 169.946 395.638 168.939 398.07C167.931 400.503 166.225 402.582 164.036 404.045C161.847 405.507 159.273 406.288 156.64 406.288C154.891 406.29 153.159 405.947 151.543 405.279C149.927 404.611 148.459 403.63 147.222 402.394C145.986 401.157 145.005 399.689 144.337 398.073C143.669 396.457 143.326 394.725 143.328 392.976ZM340.624 393.6C340.624 390.967 341.405 388.393 342.868 386.204C344.33 384.015 346.409 382.309 348.842 381.301C351.274 380.294 353.951 380.03 356.533 380.544C359.115 381.057 361.487 382.325 363.349 384.187C365.211 386.049 366.479 388.421 366.992 391.003C367.506 393.585 367.242 396.262 366.235 398.694C365.227 401.127 363.521 403.206 361.332 404.669C359.143 406.131 356.569 406.912 353.936 406.912C350.406 406.912 347.02 405.509 344.523 403.013C342.027 400.517 340.624 397.131 340.624 393.6ZM344.736 363.408C343.177 363.075 341.567 363.052 339.999 363.341C338.432 363.631 336.936 364.226 335.599 365.094C334.261 365.962 333.108 367.085 332.205 368.399C331.302 369.713 330.667 371.192 330.336 372.752L323.648 403.936C302.154 413.669 278.812 418.649 255.216 418.536C231.621 418.423 208.328 413.219 186.928 403.28L180.256 372.096C179.581 368.951 177.685 366.203 174.985 364.454C172.286 362.705 169.002 362.099 165.856 362.768L138.32 368.688C133.202 363.419 128.445 357.812 124.08 351.904H258.064C259.584 351.904 260.592 351.632 260.592 350.304V302.848C260.592 301.472 259.584 301.248 258.064 301.248H218.864V271.152H261.248C267.566 271.215 273.656 273.522 278.43 277.66C283.204 281.799 286.352 287.499 287.312 293.744C288.992 300.352 292.688 321.856 295.216 328.736C297.728 336.464 308.016 351.888 318.928 351.888H388.096C383.458 358.107 378.384 363.988 372.912 369.488L344.736 363.408ZM419.136 238.272C420.077 247.732 420.195 257.256 419.488 266.736H402.672C400.992 266.736 400.304 267.84 400.304 269.488V277.216C400.304 295.392 390.048 299.36 381.104 300.368C372.544 301.328 363.056 296.784 361.904 291.552C361.287 282.49 358.545 273.701 353.9 265.896C349.256 258.091 342.838 251.488 335.168 246.624C351.648 236.16 368.768 220.72 368.768 200.048C368.429 191.265 365.897 182.707 361.403 175.153C356.909 167.599 350.596 161.29 343.04 156.8C332.5 149.973 320.375 145.983 307.84 145.216H133.872C157.92 118.337 190.161 100.139 225.6 93.44L246.112 114.944C247.211 116.098 248.526 117.024 249.983 117.67C251.439 118.315 253.009 118.667 254.602 118.706C256.195 118.745 257.78 118.469 259.266 117.895C260.752 117.321 262.111 116.459 263.264 115.36L286.208 93.408C309.602 97.797 331.76 107.227 351.142 121.042C370.525 134.857 386.667 152.726 398.448 173.408L382.736 208.88C381.447 211.822 381.372 215.155 382.529 218.152C383.686 221.149 385.98 223.567 388.912 224.88L419.136 238.272ZM458.304 238.848L457.776 233.36L473.952 218.272C474.565 217.634 475.046 216.881 475.368 216.057C475.689 215.233 475.845 214.353 475.825 213.469C475.806 212.584 475.612 211.712 475.255 210.903C474.898 210.093 474.384 209.363 473.744 208.752C473.178 208.213 472.523 207.774 471.808 207.456L451.2 199.728L449.6 194.384L462.496 176.464C463.449 174.954 463.765 173.129 463.375 171.387C462.985 169.645 461.921 168.128 460.416 167.168C459.761 166.757 459.042 166.46 458.288 166.288L436.48 162.736L433.856 157.84L443.024 137.728C443.348 136.909 443.508 136.033 443.494 135.152C443.479 134.271 443.291 133.402 442.941 132.593C442.59 131.785 442.083 131.053 441.45 130.441C440.816 129.829 440.068 129.347 439.248 129.024C438.503 128.733 437.712 128.576 436.912 128.56L414.784 129.328L411.2 125.104L416.288 103.552C416.44 102.68 416.418 101.787 416.224 100.923C416.031 100.059 415.669 99.2423 415.159 98.5186C414.649 97.795 414.002 97.1789 413.254 96.7055C412.506 96.2322 411.672 95.9109 410.8 95.76C410.037 95.632 409.259 95.632 408.496 95.76L386.928 100.8L382.672 97.296L383.456 75.2C383.435 74.3153 383.24 73.4434 382.883 72.6341C382.525 71.8248 382.011 71.0939 381.371 70.4832C380.73 69.8725 379.976 69.394 379.15 69.075C378.325 68.756 377.445 68.6027 376.56 68.624C375.788 68.6445 375.025 68.7959 374.304 69.072L354.192 78.24L349.296 75.616L345.744 53.808C345.35 52.0768 344.289 50.571 342.791 49.6182C341.293 48.6654 339.479 48.3426 337.744 48.72C336.99 48.8917 336.271 49.1892 335.616 49.6L317.68 62.496L312.352 60.896L304.624 40.208C303.902 38.5747 302.561 37.2948 300.896 36.6497C299.231 36.0047 297.378 36.0472 295.744 36.768C295.038 37.0867 294.39 37.5191 293.824 38.048L278.688 54.24L273.2 53.712L261.552 34.88C260.93 33.9985 260.106 33.2793 259.148 32.7828C258.19 32.2864 257.127 32.0273 256.048 32.0273C254.969 32.0273 253.906 32.2864 252.948 32.7828C251.991 33.2793 251.166 33.9985 250.544 34.88L238.896 53.712L233.408 54.24L218.32 38.048C217.026 36.8179 215.296 36.1522 213.51 36.1973C211.725 36.2423 210.031 36.9943 208.8 38.288C208.271 38.8536 207.839 39.5022 207.52 40.208L199.728 60.8L194.4 62.4L176.48 49.6C174.97 48.6474 173.145 48.3315 171.403 48.7213C169.661 49.111 168.144 50.1748 167.184 51.68C166.773 52.3349 166.476 53.0543 166.304 53.808L162.752 75.616L157.856 78.24L137.728 69.072C136.066 68.4286 134.218 68.4698 132.586 69.1865C130.955 69.9032 129.674 71.237 129.024 72.896C128.748 73.6338 128.597 74.4125 128.576 75.2L129.344 97.328L125.088 100.8L103.536 95.744C102.664 95.5923 101.771 95.6139 100.907 95.8077C100.043 96.0014 99.2264 96.3635 98.5027 96.8731C97.7791 97.3828 97.163 98.0301 96.6896 98.778C96.2163 99.526 95.895 100.36 95.7441 101.232C95.6161 101.995 95.6161 102.773 95.7441 103.536L100.8 125.104L97.3121 129.344L75.2001 128.576C74.12 128.604 73.0625 128.891 72.1164 129.413C71.1702 129.934 70.3631 130.675 69.7627 131.574C69.1623 132.472 68.7862 133.501 68.6661 134.575C68.5459 135.648 68.6851 136.735 69.0721 137.744L78.2401 157.856L75.6161 162.752L53.8081 166.304C52.0747 166.694 50.5663 167.755 49.6128 169.254C48.6593 170.753 48.3383 172.569 48.7201 174.304C48.8918 175.058 49.1893 175.777 49.6001 176.432L62.4961 194.352L60.8961 199.696L40.2081 207.424C38.5748 208.146 37.2949 209.487 36.6498 211.152C36.0048 212.817 36.0473 214.67 36.7681 216.304C37.0823 217.021 37.5211 217.676 38.0641 218.24L54.2401 233.328L53.7121 238.816L34.8801 250.464C33.9986 251.086 33.2793 251.911 32.7829 252.868C32.2865 253.826 32.0273 254.889 32.0273 255.968C32.0273 257.047 32.2865 258.11 32.7829 259.068C33.2793 260.026 33.9986 260.85 34.8801 261.472L53.7121 273.12L54.2401 278.608L38.0641 293.696C36.834 294.991 36.1683 296.721 36.2133 298.506C36.2583 300.291 37.0104 301.985 38.3041 303.216C38.8638 303.745 39.5071 304.177 40.2081 304.496L60.8961 312.224L62.4961 317.568L49.6001 335.552C49.127 336.3 48.806 337.134 48.6553 338.006C48.5046 338.878 48.5273 339.771 48.7219 340.634C48.9166 341.498 49.2794 342.314 49.7897 343.037C50.3001 343.76 50.9478 344.375 51.6961 344.848C52.3509 345.259 53.0704 345.556 53.8241 345.728L75.6321 349.28L78.2561 354.192L69.0881 374.304C68.445 375.97 68.488 377.823 69.2076 379.457C69.9273 381.091 71.265 382.374 72.9281 383.024C73.6604 383.3 74.4338 383.451 75.2161 383.472L97.3441 382.704L100.848 386.96L95.7761 408.528C95.4693 410.283 95.8716 412.087 96.8947 413.545C97.9177 415.003 99.4778 415.996 101.232 416.304C102.004 416.447 102.796 416.447 103.568 416.304L125.088 411.2L129.344 414.688L128.56 436.8C128.579 437.682 128.771 438.551 129.127 439.359C129.482 440.166 129.993 440.895 130.631 441.504C131.268 442.114 132.02 442.591 132.842 442.91C133.665 443.228 134.542 443.381 135.424 443.36C136.207 443.347 136.982 443.196 137.712 442.912L157.824 433.744L162.72 436.368L166.272 458.16C166.662 459.894 167.722 461.404 169.221 462.36C170.719 463.316 172.535 463.641 174.272 463.264C175.028 463.099 175.749 462.801 176.4 462.384L194.32 449.472L199.664 451.072L207.392 471.744C208.12 473.376 209.465 474.652 211.133 475.294C212.8 475.936 214.654 475.89 216.288 475.168C216.989 474.849 217.632 474.417 218.192 473.888L233.28 457.712L238.768 458.256L250.416 477.088C251.452 478.547 253.025 479.535 254.789 479.835C256.553 480.135 258.364 479.722 259.824 478.688C260.445 478.251 260.987 477.709 261.424 477.088L273.072 458.256L278.56 457.712L293.648 473.888C294.943 475.118 296.673 475.784 298.458 475.739C300.243 475.694 301.937 474.942 303.168 473.648C303.697 473.088 304.129 472.445 304.448 471.744L312.176 451.072L317.52 449.472L335.44 462.384C336.188 462.857 337.022 463.178 337.894 463.329C338.766 463.479 339.659 463.457 340.522 463.262C341.386 463.068 342.202 462.705 342.925 462.194C343.648 461.684 344.264 461.036 344.736 460.288C345.147 459.633 345.444 458.914 345.616 458.16L349.168 436.368L354.064 433.744L374.176 442.912C375.838 443.555 377.686 443.514 379.318 442.798C380.949 442.081 382.23 440.747 382.88 439.088C383.156 438.356 383.308 437.582 383.328 436.8L382.56 414.656L386.8 411.168L408.352 416.24C410.106 416.547 411.911 416.148 413.371 415.128C414.831 414.109 415.828 412.553 416.144 410.8C416.272 410.027 416.272 409.237 416.144 408.464L411.2 386.928L414.688 382.672L436.816 383.44C438.6 383.394 440.293 382.642 441.523 381.349C442.752 380.056 443.419 378.328 443.376 376.544C443.366 375.766 443.214 374.996 442.928 374.272L433.76 354.16L436.384 349.248L458.192 345.696C459.926 345.306 461.436 344.246 462.392 342.747C463.348 341.249 463.673 339.433 463.296 337.696C463.122 336.931 462.819 336.2 462.4 335.536L449.504 317.616L451.104 312.272L471.792 304.544C472.6 304.188 473.33 303.677 473.941 303.038C474.551 302.4 475.03 301.648 475.349 300.825C475.669 300.002 475.823 299.124 475.803 298.241C475.783 297.358 475.589 296.488 475.232 295.68C474.918 294.963 474.479 294.308 473.936 293.744L457.76 278.656L458.288 273.168L477.12 261.52C478.002 260.898 478.721 260.074 479.217 259.116C479.714 258.158 479.973 257.095 479.973 256.016C479.973 254.937 479.714 253.874 479.217 252.916C478.721 251.959 478.002 251.134 477.12 250.512L458.304 238.848Z" fill="url(#paint0_radial_406_60)"/>
</g>
<defs>
<radialGradient id="paint0_radial_406_60" cx="0" cy="0" r="1" gradientUnits="userSpaceOnUse" gradientTransform="translate(256.235 261.39) rotate(-30.0007) scale(223.963 134.455)">
<stop stop-color="#7D7D7D"/>
<stop offset="0.267" stop-color="#7E7C7A"/>
<stop offset="0.45" stop-color="#817871"/>
<stop offset="0.608" stop-color="#867162"/>
<stop offset="0.753" stop-color="#8D684C"/>
<stop offset="0.886" stop-color="#965C30"/>
<stop offset="1" stop-color="#A04F12"/>
</radialGradient>
<clipPath id="clip0_406_60">
<rect width="512" height="512" fill="white"/>
</clipPath>
</defs>
</svg>
