<svg width="512" height="512" viewBox="0 0 512 512" fill="none" xmlns="http://www.w3.org/2000/svg">
<path d="M121.56 89.5013C121.56 149.534 158.881 185.545 233.527 204.504L312.601 222.827C383.453 239.256 426.47 279.697 426.47 345.41C427.103 373.845 417.616 401.648 400.532 424.394C400.532 358.68 366.373 323.297 284.766 301.811L206.957 284.123C144.335 270.213 96.2544 236.72 96.2544 165.322C96.2544 138.15 105.108 110.979 121.56 89.497" fill="#F04939"/>
<path d="M351.824 328.982C385.351 350.468 400.533 380.798 400.533 424.398C372.066 460.413 323.357 480 265.79 480C169.005 480 100.054 431.978 85.5 349.205H178.491C190.511 387.115 222.141 404.807 265.158 404.807C316.401 405.439 351.192 377.635 351.824 328.982ZM121.561 88.8697C148.759 53.4862 195.575 32 252.501 32C351.82 32 408.755 84.4478 423.305 157.746H333.48C323.362 128.679 298.684 105.93 253.77 105.93C205.061 106.561 172.167 134.365 170.27 178.596C137.672 160.639 120.291 125.516 121.561 88.8697Z" fill="#F37368"/>
</svg>
