<svg width="512" height="512" viewBox="0 0 512 512" fill="none" xmlns="http://www.w3.org/2000/svg">
<g clip-path="url(#clip0_45_126)">
<path d="M417.492 280.644C401.906 280.722 388.359 284.364 377.018 289.748C372.854 281.751 368.693 274.626 367.96 269.4C367.142 263.304 366.164 259.583 367.142 252.299C368.122 245.014 372.529 234.642 372.447 233.851C372.366 233.059 371.467 229.338 362.491 229.26C353.515 229.18 345.763 230.922 344.865 233.217C343.967 235.513 342.254 240.739 341.111 246.122C339.561 254.041 323.16 282.304 313.776 297.11C310.756 291.332 308.145 286.264 307.572 282.226C306.757 276.131 305.777 272.409 306.757 265.125C307.737 257.841 312.143 247.47 312.061 246.677C311.979 245.886 311.081 242.164 302.105 242.086C293.128 242.006 285.375 243.748 284.479 246.043C283.582 248.341 282.602 253.723 280.726 258.949C278.848 264.175 257.06 311.364 251.348 323.555C249.04 328.489 246.619 333.373 244.086 338.203C244.086 338.203 244.004 338.441 243.759 338.836C242.963 340.351 242.147 341.855 241.312 343.349V343.427C240.087 345.567 238.782 347.545 238.129 347.545C237.639 347.545 236.741 341.845 238.292 334.085C241.555 317.697 249.308 292.203 249.227 291.332C249.227 290.857 250.696 286.423 244.168 284.126C237.802 281.83 235.518 285.63 234.946 285.63C234.375 285.63 233.966 286.977 233.966 286.977C233.966 286.977 241.067 258.316 220.421 258.316C207.528 258.316 189.738 272.013 180.925 284.364C170.906 289.653 160.896 294.958 150.895 300.278C146.082 302.891 141.104 305.504 136.452 307.958C136.125 307.642 135.799 307.245 135.472 306.929C110.501 281.039 64.3153 262.749 66.2736 227.993C67.0086 215.325 71.4956 182.071 154.976 141.693C223.684 108.835 278.36 117.939 287.825 138.129C301.37 166.949 258.53 220.471 187.535 228.229C160.443 231.16 146.243 221.025 142.654 217.225C138.9 213.265 138.328 213.027 136.94 213.82C134.657 215.009 136.125 218.571 136.94 220.629C139.063 226.011 147.794 235.513 162.564 240.186C175.621 244.301 207.364 246.599 245.799 232.188C288.804 216.036 322.425 171.145 312.551 133.538C302.676 95.3754 237.394 82.787 175.621 104.084C138.9 116.754 99.0773 136.704 70.4351 162.674C36.4063 193.551 31.0198 220.391 33.2231 231.635C41.1401 271.538 97.8541 297.507 120.539 316.746C119.397 317.38 118.334 317.935 117.438 318.41C106.095 323.873 62.8453 345.803 52.0741 369.001C39.8346 395.287 54.0341 414.132 63.4176 416.664C92.5498 424.503 122.498 410.41 138.573 387.132C154.649 363.855 152.69 333.61 145.265 319.755C145.183 319.597 145.102 319.438 144.938 319.28C147.876 317.617 150.895 315.875 153.833 314.213C159.233 311.116 164.702 308.132 170.236 305.265C167.46 312.629 165.42 321.417 164.442 334.085C163.217 348.971 169.499 368.288 177.742 375.888C181.415 379.216 185.739 379.294 188.515 379.294C198.143 379.294 202.469 371.535 207.283 362.351C213.158 351.109 218.462 338.045 218.462 338.045C218.462 338.045 211.853 373.357 229.806 373.357C236.333 373.357 242.943 365.122 245.881 360.926V361.004C245.881 361.004 246.044 360.767 246.371 360.213C247.024 359.184 247.432 358.549 247.432 358.549V358.393C250.043 353.958 255.919 343.903 264.65 327.197C275.911 305.662 286.765 278.744 286.765 278.744C286.765 278.744 287.745 285.315 291.089 296.241C293.049 302.654 297.127 309.7 300.392 316.509C297.781 320.073 296.148 322.051 296.148 322.051L296.231 322.13C294.108 324.822 291.824 327.751 289.294 330.603C280.398 340.894 269.792 352.693 268.322 356.096C266.607 360.133 267.016 363.064 270.282 365.439C272.648 367.181 276.89 367.417 281.216 367.181C289.213 366.626 294.843 364.726 297.617 363.539C301.943 362.035 307.002 359.738 311.734 356.333C320.466 350.078 325.769 341.132 325.281 329.336C325.036 322.844 322.832 316.351 320.139 310.254C320.956 309.147 321.69 308.038 322.507 306.929C336.297 287.372 346.988 265.916 346.988 265.916C346.988 265.916 347.968 272.487 351.312 283.415C352.945 288.957 356.291 294.974 359.227 300.832C346.253 311.046 338.255 322.922 335.399 330.681C330.259 345.091 334.256 351.583 341.846 353.087C345.273 353.8 350.169 352.216 353.76 350.712C358.329 349.287 363.716 346.833 368.857 343.19C377.59 336.936 385.993 328.226 385.503 316.431C385.258 311.046 383.79 305.74 381.75 300.594C392.766 296.163 406.965 293.707 425.08 295.765C463.924 300.198 471.595 323.713 470.125 333.612C468.656 343.507 460.496 348.891 457.805 350.554C455.11 352.218 454.214 352.771 454.459 353.958C454.784 355.7 456.09 355.622 458.375 355.304C461.558 354.751 478.777 347.307 479.51 329.097C480.735 305.82 457.885 280.406 417.492 280.644ZM117.846 378.661C104.952 392.278 87.0006 397.425 79.2481 393.071C70.9251 388.398 74.1888 368.288 90.0193 353.88C99.6478 345.091 112.052 336.935 120.294 331.948C122.17 330.839 124.946 329.257 128.292 327.277C128.862 326.959 129.19 326.801 129.19 326.801L131.148 325.613C136.94 346.198 131.393 364.331 117.846 378.661ZM211.69 316.746C207.201 327.357 197.818 354.513 192.106 353.009C187.209 351.742 184.189 331.157 191.126 310.809C194.634 300.594 202.06 288.401 206.386 283.652C213.403 276.051 221.156 273.516 223.032 276.606C225.399 280.644 214.464 310.096 211.69 316.746ZM289.131 352.691C287.253 353.642 285.459 354.275 284.642 353.8C284.072 353.483 285.459 352.216 285.459 352.216C285.459 352.216 295.17 342.083 299.004 337.49C301.209 334.799 303.819 331.632 306.594 328.068V329.097C306.594 341.212 294.516 349.367 289.129 352.691H289.131ZM348.864 339.47C347.476 338.519 347.721 335.352 352.372 325.455C354.168 321.575 358.41 315.084 365.674 308.829C366.49 311.362 367.062 313.817 366.98 316.113C366.897 331.394 355.638 337.094 348.864 339.47Z" fill="#CD6799"/>
</g>
<defs>
<clipPath id="clip0_45_126">
<rect width="448" height="326" fill="white" transform="translate(32 93)"/>
</clipPath>
</defs>
</svg>
