<svg width="512" height="512" viewBox="0 0 512 512" fill="none" xmlns="http://www.w3.org/2000/svg">
<g clip-path="url(#clip0_502_63)">
<path d="M449.417 44.4961C442.806 60.3548 434.344 75.3763 424.205 89.2475C379.786 44.8534 319.557 19.9117 256.756 19.9041C126.879 19.9041 20 126.871 20 256.892C19.9986 289 26.5166 320.773 39.1588 350.286C51.801 379.8 70.3043 406.439 93.5472 428.59L102.279 436.333C144.954 472.314 198.968 492.063 254.787 492.096C378.27 492.096 482.073 395.336 490.864 272.015C497.321 211.647 479.614 135.293 449.417 44.4961ZM127.185 429.939C125.284 432.282 122.884 434.17 120.161 435.468C117.438 436.765 114.459 437.439 111.443 437.44C100.314 437.44 91.2093 428.28 91.2093 417.151C91.2093 406.026 100.373 396.866 111.443 396.866C116.052 396.866 120.606 398.463 124.172 401.417C132.841 408.423 134.194 421.27 127.185 429.939ZM448.436 358.999C390.015 436.887 265.241 410.635 185.237 414.386C185.237 414.386 171.033 415.248 156.766 417.583C156.766 417.583 162.113 415.307 169.063 412.663C225.209 393.116 251.774 389.303 285.902 371.784C350.164 339.079 413.689 267.523 426.912 193.076C402.438 264.695 328.271 326.232 260.691 351.252C214.387 368.343 130.75 384.941 130.75 384.941L127.369 383.156C70.4266 355.433 68.7008 232.053 172.198 192.217C217.521 174.757 260.875 184.348 309.826 172.666C362.097 160.25 422.546 121.026 447.142 69.8808C474.691 151.706 507.841 279.818 448.436 358.999Z" fill="#77BC1F"/>
</g>
<defs>
<clipPath id="clip0_502_63">
<rect width="472" height="472" fill="white" transform="translate(20 20)"/>
</clipPath>
</defs>
</svg>
