<svg width="512" height="512" viewBox="0 0 512 512" fill="none" xmlns="http://www.w3.org/2000/svg">
<path d="M330.724 89.3816L332.823 39.3077L375.748 36.6564L377.673 87.6298C377.705 88.4467 377.441 89.2476 376.932 89.8866C376.655 90.2331 376.311 90.5206 375.921 90.7319C375.531 90.9432 375.103 91.0741 374.661 91.1167C374.22 91.1594 373.774 91.113 373.351 90.9803C372.928 90.8476 372.535 90.6313 372.197 90.3442L355.627 77.4036L336.011 92.1433C335.66 92.4168 335.258 92.6176 334.829 92.734C334.4 92.8505 333.952 92.8802 333.511 92.8214C333.07 92.7626 332.646 92.6166 332.262 92.3917C331.878 92.1669 331.543 91.8678 331.276 91.512C330.85 90.8877 330.655 90.1343 330.724 89.3816Z" fill="white"/>
<path d="M332.823 39.2919L330.725 89.3816C330.692 90.1496 330.932 90.9044 331.403 91.512C331.67 91.8678 332.005 92.1669 332.389 92.3917C332.772 92.6166 333.197 92.7626 333.638 92.8214C334.079 92.8802 334.527 92.8505 334.956 92.734C335.385 92.6176 335.787 92.4168 336.138 92.1433L355.754 77.4036L372.324 90.3442C372.662 90.6313 373.054 90.8476 373.478 90.9803C373.901 91.113 374.346 91.1594 374.788 91.1167C375.229 91.0741 375.658 90.9432 376.048 90.7319C376.438 90.5206 376.781 90.2331 377.058 89.8866C377.568 89.2476 377.831 88.4467 377.8 87.6298L375.748 36.6406L400.462 35.0625C403.392 34.8676 406.332 35.2525 409.113 36.1952C411.894 37.1379 414.462 38.6199 416.669 40.5563C418.877 42.4927 420.681 44.8455 421.978 47.48C423.275 50.1146 424.04 52.9791 424.228 55.9095V454.717C424.203 460.622 421.839 466.276 417.654 470.441C413.468 474.606 407.803 476.942 401.898 476.938H400.856L101.833 463.618C96.2328 463.389 90.9238 461.06 86.9617 457.095C82.9997 453.13 80.675 447.819 80.4498 442.219L66.6254 77.5141C66.4261 71.6974 68.5105 66.0337 72.4328 61.7339C76.3551 57.4341 81.804 54.8396 87.6144 54.505L332.808 39.3076L332.823 39.2919Z" fill="#FF4785"/>
<path d="M275.774 201.618C275.774 210.25 334.481 206.115 342.371 200.04C342.371 141.176 310.525 110.244 252.197 110.244C193.87 110.244 161.202 141.649 161.202 188.772C161.202 270.834 272.886 272.413 272.886 317.168C273.254 319.87 272.995 322.62 272.13 325.206C271.266 327.792 269.818 330.144 267.899 332.082C265.98 334.019 263.641 335.489 261.064 336.378C258.486 337.267 255.739 337.552 253.034 337.21C235.248 337.21 228.21 328.183 229.046 297.568C229.046 290.924 161.187 288.841 159.135 297.568C153.864 371.74 200.498 393.202 253.823 393.202C305.522 393.202 346.064 365.853 346.064 316.379C346.064 228.43 232.723 230.797 232.723 187.21C232.486 184.426 232.879 181.624 233.871 179.013C234.864 176.402 236.432 174.047 238.458 172.124C240.485 170.2 242.918 168.758 245.577 167.902C248.237 167.047 251.055 166.801 253.823 167.183C262.124 167.183 277.021 168.635 275.774 201.618Z" fill="white"/>
</svg>
