<svg width="512" height="512" viewBox="0 0 512 512" fill="none" xmlns="http://www.w3.org/2000/svg">
<g clip-path="url(#clip0_45_64)">
<path d="M63.4842 235.341C63.4842 230.469 67.4664 228.594 74.063 228.594C83.52 228.594 95.4664 231.469 104.924 236.591V207.229C94.5958 203.106 84.3915 201.482 74.063 201.482C48.8 201.482 32 214.726 32 236.842C32 271.325 79.2885 265.828 79.2885 280.697C79.2885 286.443 74.3115 288.318 67.3421 288.318C57.0136 288.318 43.8221 284.069 33.3685 278.322V308.058C44.9421 313.056 56.64 315.18 67.3421 315.18C93.2264 315.18 111.022 302.311 111.022 279.946C110.898 242.713 63.4842 249.335 63.4842 235.341ZM147.608 176.494L117.244 182.99L117.12 283.069C117.12 301.562 130.934 315.18 149.352 315.18C159.556 315.18 167.022 313.306 171.128 311.057V285.693C167.147 287.318 147.484 293.065 147.484 274.573V230.219H171.128V203.606H147.484L147.608 176.494ZM209.831 212.851L207.84 203.606H180.96V312.931H212.072V238.84C219.413 229.22 231.858 230.969 235.716 232.343V203.606C231.734 202.106 217.174 199.358 209.831 212.851ZM243.306 203.606H274.542V312.931H243.306V203.606ZM243.306 194.11L274.542 187.363V162L243.306 168.622V194.109V194.11ZM339.502 201.482C327.306 201.482 319.466 207.229 315.112 211.228L313.493 203.481H286.116V349.164L317.226 342.542L317.352 307.183C321.832 310.432 328.426 315.055 339.378 315.055C361.654 315.055 381.938 297.063 381.938 257.457C381.814 221.223 361.28 201.482 339.502 201.482ZM332.036 287.567C324.694 287.567 320.337 284.944 317.352 281.695L317.226 235.341C320.462 231.718 324.942 229.22 332.036 229.22C343.36 229.22 351.2 241.963 351.2 258.331C351.2 275.073 343.484 287.567 332.036 287.567ZM480 258.706C480 226.72 464.568 201.482 435.076 201.482C405.457 201.482 387.537 226.721 387.537 258.456C387.537 296.063 408.694 315.055 439.057 315.055C453.866 315.055 465.066 311.681 473.529 306.934V281.945C465.067 286.193 455.36 288.817 443.04 288.817C430.969 288.817 420.266 284.569 418.898 269.826H479.751C479.751 268.201 480 261.704 480 258.706ZM418.524 246.836C418.524 232.718 427.111 226.845 434.951 226.845C442.542 226.845 450.632 232.718 450.632 246.836H418.524Z" fill="#6772E5"/>
</g>
<defs>
<clipPath id="clip0_45_64">
<rect width="448" height="188" fill="white" transform="translate(32 162)"/>
</clipPath>
</defs>
</svg>
