<svg width="512" height="512" viewBox="0 0 512 512" fill="none" xmlns="http://www.w3.org/2000/svg">
<g clip-path="url(#clip0_45_184)">
<path d="M256 121.5C196.267 121.5 158.933 151.312 144 210.934C166.4 181.122 192.533 169.943 222.4 177.396C239.44 181.648 251.62 193.989 265.102 207.646C287.064 229.898 312.481 255.651 368 255.651C427.733 255.651 465.067 225.839 480 166.217C457.6 196.029 431.467 207.208 401.6 199.755C384.56 195.503 372.38 183.162 358.898 169.504C336.936 147.252 311.519 121.5 256 121.5ZM144 255.651C84.2673 255.651 46.9327 285.462 32 345.084C54.4 315.273 80.5327 304.093 110.4 311.547C127.44 315.798 139.62 328.139 153.102 341.797C175.064 364.049 200.481 389.801 256 389.801C315.733 389.801 353.067 359.989 368 300.368C345.6 330.179 319.467 341.359 289.6 333.905C272.56 329.654 260.38 317.313 246.898 303.655C224.936 281.403 199.519 255.651 144 255.651Z" fill="url(#paint0_linear_45_184)"/>
</g>
<defs>
<linearGradient id="paint0_linear_45_184" x1="19.5546" y1="207.356" x2="406.117" y2="430.656" gradientUnits="userSpaceOnUse">
<stop stop-color="#2298BD"/>
<stop offset="1" stop-color="#0ED7B5"/>
</linearGradient>
<clipPath id="clip0_45_184">
<rect width="448" height="269" fill="white" transform="translate(32 121.5)"/>
</clipPath>
</defs>
</svg>
