<svg width="512" height="512" viewBox="0 0 512 512" fill="none" xmlns="http://www.w3.org/2000/svg">
<g clip-path="url(#clip0_45_67)">
<path d="M32 256V480H480V32H32V256Z" fill="#007ACC"/>
<path d="M131.071 257.488L130.929 275.833H189.239V441.523H230.483V275.833H288.795V257.843C288.795 247.885 288.581 239.566 288.298 239.352C288.084 239.069 252.598 238.925 209.578 238.997L131.283 239.21L131.071 257.486V257.488ZM393.492 238.689C404.869 241.533 413.545 246.581 421.51 254.831C425.634 259.241 431.749 267.275 432.248 269.195C432.388 269.764 412.905 282.848 401.101 290.174C400.674 290.457 398.966 288.609 397.046 285.764C391.287 277.373 385.243 273.747 375.997 273.106C362.417 272.182 353.669 279.292 353.741 291.168C353.741 294.654 354.238 296.716 355.661 299.559C358.648 305.747 364.194 309.445 381.617 316.982C413.687 330.777 427.411 339.879 435.946 352.822C445.474 367.258 447.607 390.298 441.136 407.436C434.026 426.067 416.391 438.724 391.571 442.919C383.892 444.27 365.688 444.057 357.439 442.564C339.449 439.365 322.381 430.475 311.856 418.813C307.732 414.263 299.696 402.386 300.194 401.533C300.408 401.248 302.256 400.111 304.317 398.901C306.309 397.764 313.848 393.426 320.958 389.303L333.829 381.835L336.531 385.818C340.301 391.576 348.549 399.47 353.527 402.102C367.82 409.639 387.448 408.574 397.118 399.897C401.243 396.129 402.949 392.218 402.949 386.457C402.949 381.267 402.309 378.992 399.607 375.08C396.124 370.102 389.012 365.907 368.815 357.16C345.705 347.203 335.749 341.018 326.647 331.204C321.385 325.517 316.406 316.413 314.345 308.804C312.639 302.475 312.21 286.618 313.563 280.218C318.328 257.888 335.18 242.315 359.5 237.693C367.393 236.201 385.74 236.769 393.492 238.689Z" fill="white"/>
</g>
<defs>
<clipPath id="clip0_45_67">
<rect width="448" height="448" fill="white" transform="translate(32 32)"/>
</clipPath>
</defs>
</svg>
