<svg width="512" height="512" viewBox="0 0 512 512" fill="none" xmlns="http://www.w3.org/2000/svg">
<g clip-path="url(#clip0_45_176)">
<path d="M273.572 112.153L345.458 153.086C348.043 154.523 348.137 158.51 345.458 159.947L260.041 208.622C258.826 209.328 257.438 209.701 256.023 209.701C254.609 209.701 253.221 209.328 252.006 208.622L166.588 159.947C163.957 158.557 163.911 154.476 166.588 153.086L238.428 112.153V32L55 136.49V345.471L125.336 305.417V223.55C125.289 220.629 128.766 218.543 131.35 220.119L216.768 268.794C217.997 269.495 219.017 270.497 219.725 271.701C220.434 272.904 220.808 274.268 220.809 275.656V372.96C220.855 375.881 217.378 377.967 214.794 376.39L142.908 335.457L72.5722 375.51L256 480L439.428 375.51L369.092 335.457L297.206 376.39C294.668 377.921 291.098 375.928 291.191 372.96V275.656C291.191 272.735 292.836 270.139 295.232 268.794L380.651 220.119C383.187 218.589 386.758 220.536 386.664 223.55V305.417L457 345.471V136.49L273.572 32V112.153Z" fill="black"/>
</g>
<defs>
<clipPath id="clip0_45_176">
<rect width="402" height="448" fill="white" transform="translate(55 32)"/>
</clipPath>
</defs>
</svg>
